<svg xmlns="http://www.w3.org/2000/svg" viewBox="0 0 795.5 1015.5"><style>.st0{stroke-width:12;stroke-linecap:round}.st0,.st1,.st2,.st3{fill:none;stroke:#000;stroke-miterlimit:10}.st1{stroke-width:12;stroke-linejoin:round;stroke-linecap:square}.st2,.st3{stroke-linecap:round}.st2{stroke-linejoin:round;stroke-width:12}.st3{stroke-width:5}.st4{fill:#1e1e1e}.st5{stroke-width:4.1568;stroke-linecap:round}.st5,.st6,.st7,.st8{fill:none;stroke:#1e1e1e;stroke-miterlimit:10}.st6{stroke-width:4.1568;stroke-linejoin:round;stroke-linecap:square}.st7,.st8{stroke-linecap:round}.st7{stroke-linejoin:round;stroke-width:4.1568}.st8{stroke-width:1.732}.st9{display:none}.st10{display:inline}</style><g id="Large_Tree"><path d="M-702.7 1395.6c9.6-4.8 19-9.9 28.2-15.4 9.1-5.5 18-11.5 26.6-17.8 4.3-3.2 8.5-6.4 12.7-9.8l3.1-2.5 1.5-1.3 1.5-1.3 3.1-2.6 3-2.6c3.9-3.5 7.8-7.2 11.4-11 3.6-3.8 7.1-7.7 10.1-11.9 1.5-2.1 2.9-4.2 4.2-6.4 1.3-2.2 2.3-4.4 3.4-6.8 1.9-4.4 3.2-9.5 4.5-14.6 1.2-5.1 2.4-10.4 3.5-15.6l3.4-15.6c1.1-5.2 2.2-10.3 3.1-15.5l1.5-7.8c.5-2.6 1-5.4 1.8-8.3.7-2.9 1.7-5.8 2.9-8.6 1.2-2.7 2.5-5.4 3.7-7.7 2.4-4.7 4.7-9.5 6.6-14.1 1-2.3 1.9-4.7 2.7-7.1l1.3-3.7.6-1.8.5-1.8c.7-2.4 1.2-4.8 1.7-7.2.2-1.2.5-2.5.6-3.7.2-1.1.3-2.3.4-3.5l.1-1.8.1-1.9c0-1.1 0-2.3-.1-3.5-.1-2.4-.4-4.8-.8-7.2-.8-4.9-2-9.8-3.5-14.7-1.5-4.9-3.2-9.8-5.1-14.6l-1.5-3.6-.7-1.8-.8-1.8-1.6-3.7-1.6-3.5c-4.4-9.4-9.5-18.4-15.2-27.2-5.7-8.8-12.1-17.4-17.9-27-5.7-9.5-10.6-19.6-14.7-29.9-4-10.3-7.2-21-9.7-31.7-2.5-10.8-4.1-21.7-5.2-32.6l13.5 1.5c-6.3 19.1-13.4 37.9-21.3 56.4s-16.7 36.6-26.2 54.3c-4.8 8.8-9.8 17.6-14.9 26.2-5.2 8.6-10.6 17.1-16.1 25.5-10.9 16.7-22.4 33.3-34.8 49.2-1.5 2-3.1 4-4.7 5.9l-4.8 5.9c-3.2 3.9-6.5 7.7-9.8 11.5-3.4 3.7-6.7 7.5-10.2 11.2-3.5 3.6-7 7.3-10.6 10.9-14.3 14.2-29.6 27.5-45.8 39.6-4.1 3-8.2 5.9-12.3 8.8-2 1.5-4.2 2.8-6.3 4.2l-6.3 4.1c-4.2 2.8-8.5 5.4-12.7 8-4.3 2.6-8.6 5.2-12.9 7.7-17.4 10.2-35.8 19.1-55.4 25.2-2.5.7-4.9 1.5-7.4 2.1l-7.5 1.8c-5 1-10.1 2-15.1 2.6l-3.8.5c-1.3.1-2.6.2-3.8.3l-3.8.3c-1.3.1-2.6.2-3.8.2l-7.7.2h-3.9l-3.7-.1c-5.3-.3-10.4-.8-15.6-1.7-5.1-.9-10.2-2.2-15-3.6-4.8-1.3-9.5-2.6-14.2-3.6-2.4-.5-4.7-1-7.1-1.4-2.4-.4-4.8-.7-7.2-1.1-4.8-.6-9.7-1-14.6-1.3l-1.8-.1-1.9-.1c-1.3-.1-2.5-.1-3.7-.2-2.4-.1-4.9-.1-7.3-.2-9.8-.1-19.6.3-29.4 1.1-9.8.8-19.6 2-29.2 3.7-2.4.4-4.9.8-7.3 1.3l-7.2 1.5c-2.4.5-4.8 1.1-7.2 1.6-2.4.6-4.8 1.1-7.2 1.8l-7.1 1.9c-2.4.6-4.7 1.4-7.1 2.1-2.3.7-4.7 1.4-7 2.2l-7 2.4a269 269 0 0 0-27.3 11.1c-8.8 4.3-17.5 9-26 14.1s-17 10.3-25.5 15.4-17 10.3-25.8 15.2c-4.4 2.5-9 4.7-13.7 6.6-4.7 1.9-9.6 3.4-14.5 4.6-4.9 1.2-9.9 2-14.9 2.7-2.5.2-5 .6-7.5.7l-3.8.2-3.8.1c-2.5.1-5 0-7.5 0s-5-.2-7.5-.4l-7.5-.7-7.4-1c-.5-.1-.8-.5-.8-1 .1-.5.5-.8.9-.8l7.4.6 7.4.3c2.5 0 4.9.1 7.4 0s4.9-.1 7.4-.3l3.7-.2 3.7-.4c2.5-.2 4.9-.6 7.3-1 4.8-.8 9.6-1.8 14.3-3.2 4.7-1.4 9.3-3 13.7-4.9 4.4-1.9 8.7-4.2 12.9-6.8 8.4-5.1 16.8-10.5 25.2-15.9 8.4-5.4 16.7-10.8 25.2-16.1 8.5-5.3 17.3-10.3 26.3-14.9 4.5-2.3 9.1-4.4 13.8-6.3 2.3-1 4.7-1.9 7-2.9l3.5-1.4 3.6-1.3 7.1-2.6c2.4-.9 4.8-1.6 7.2-2.4 2.4-.7 4.8-1.6 7.2-2.2l7.3-2.1c2.4-.7 4.9-1.3 7.3-1.9 2.5-.6 4.9-1.2 7.4-1.8l7.4-1.6c2.5-.5 5-.9 7.4-1.4 9.9-1.8 19.9-3.2 30-4 20.1-1.8 40.3-2 60.6.3 2.5.3 5.1.6 7.6 1s5 .9 7.6 1.4c5 1 10 2.3 14.8 3.6 4.8 1.3 9.4 2.5 14.1 3.2 4.7.8 9.4 1.2 14.1 1.4l3.7.1h2.6 1l7.2-.3c1.2 0 2.4-.2 3.6-.3l3.6-.3 3.6-.3 3.6-.5c4.8-.6 9.5-1.6 14.2-2.6l7-1.8c2.3-.6 4.6-1.4 7-2.1 18.5-5.9 36-14.6 52.9-24.6 4.2-2.5 8.4-5.1 12.6-7.7 4.2-2.6 8.5-5.3 12.5-8l6.1-4.1c2-1.4 4.1-2.7 6.1-4.1 4-2.9 8-5.7 11.9-8.6 15.7-11.8 30.4-24.9 44.2-38.8 3.5-3.5 6.8-7.1 10.2-10.6 3.3-3.6 6.5-7.3 9.8-11 3.2-3.8 6.4-7.5 9.5-11.3l4.6-5.8c1.5-1.9 3.1-3.8 4.5-5.8 12-15.6 23.1-31.9 33.9-48.6 5.4-8.3 10.7-16.6 15.7-25.1s9.9-17.1 14.5-25.7c9.2-17.4 17.8-35.2 25.4-53.3 7.7-18.2 14.6-36.6 20.6-55.4l10.2-31.4 3.3 32.9c1.1 10.4 2.7 20.7 5.1 30.9 2.3 10.1 5.3 20.1 9.1 29.7 3.8 9.6 8.3 18.9 13.6 27.8 5.3 8.8 11.6 17.4 17.6 26.6 6 9.2 11.5 18.8 16.2 28.9l1.8 3.8 1.6 3.7.8 1.9.8 1.9c.5 1.3 1.1 2.5 1.6 3.8 2 5.1 3.9 10.4 5.5 15.7 1.6 5.4 3 10.9 3.9 16.6.4 2.9.8 5.8.9 8.8.1 1.5.1 3 .1 4.6l-.1 2.1c0 .7-.1 1.5-.1 2.2-.1 1.5-.3 3-.5 4.5-.2 1.4-.5 2.8-.7 4.2-.5 2.8-1.2 5.6-2 8.4l-.6 2.1-.7 2.1-1.3 3.9c-.9 2.6-1.9 5.3-3 7.9-2.2 5.2-4.6 10.1-7 15-1.2 2.5-2.3 4.6-3.2 6.8-.9 2.2-1.6 4.3-2.2 6.6-.6 2.3-1.1 4.8-1.6 7.5-.5 2.6-1.1 5.3-1.6 7.9-1.2 5.3-2.5 10.6-4.1 15.9-.8 2.6-1.5 5.3-2.3 7.8l-1.2 3.9-1.2 3.8c-1.7 5.1-3.4 10.2-5.2 15.4-1.8 5.1-3.6 10.4-6.3 15.6-1.2 2.4-2.7 5-4.3 7.3-1.6 2.4-3.3 4.7-5.1 6.8-3.6 4.3-7.4 8.3-11.4 12-4 3.7-8.1 7.3-12.4 10.7-8.4 6.7-17.2 13.1-26.2 19-4.5 3-9.1 5.8-13.7 8.6s-9.3 5.4-14.1 8c-9.5 5.1-19.2 9.8-29 14.1-.3.1-.7 0-.8-.3-.2.3-.1 0 .2-.2z"/><path class="st0" d="M-882 509.2c61.1-38.4 96.2-37 117-28.1 19.4 8.3 31.4 24.6 64.4 31.3 16.4 3.3 24.7 1.4 40.4 8.6 18.2 8.3 29.3 20.8 33.5 26.1 15.6 19.5 18.5 40.1 21 59.4 1.1 8.3 4.5 39.1-6.2 83.9-12.1 51.1-25.7 49.9-24.8 80.2.6 19.8 7.1 43.8 15.2 73.7 3 10.9 6 21 5.9 35.5-.1 13.3-2.7 19.6-5.8 38.5-1.5 9.2-3.3 22.8-4.1 39.8"/><path d="M-631.1 759.3s-2 4.4-5.7 12.8c-.9 2.1-2 4.4-3.2 7-1.2 2.6-2.5 5.4-3.9 8.4s-3 6.2-4.6 9.7c-1.7 3.4-3.4 7.1-5.4 10.9-7.6 15.3-17.5 33.7-29.6 54.2-3.1 5.1-6.2 10.4-9.6 15.8-3.3 5.4-6.8 10.9-10.4 16.5-7.3 11.2-15.2 22.9-23.7 34.9s-17.7 24.2-27.5 36.7c-9.9 12.4-20.5 24.9-31.7 37.5-22.4 25.1-47.3 50.5-74.4 75.3-3.3 3.1-6.8 6.2-10.3 9.3-3.5 3.1-6.9 6.2-10.4 9.2-7 6.1-14 12.2-21.1 18.4-14.2 12.3-28.7 24.7-43.9 36.7-15.2 12-31.3 23.4-48.5 33.3-8.6 4.9-17.5 9.4-26.5 13.6-2.3 1-4.5 2-6.8 3l-3.4 1.5-.4.2-.6.2-.8.3-1.7.7c-1.2.4-2.2.9-3.5 1.3l-3.7 1.3c-2.5.9-4.8 1.6-7.2 2.3-19 5.8-38 10.2-57 14.5-19 4.3-37.9 8.3-56.6 12.2-18.8 3.9-37.4 7.8-55.7 11.6-18.4 3.8-36.6 7.3-54.2 11.4-8.8 2-17.4 4.2-25.7 6.8-8.3 2.6-16.4 5.6-24.2 9-7.8 3.4-15.4 7.3-22.6 11.4l-1.4.8-1.3.7-2.7 1.6c-1.8 1.1-3.7 2.2-5.4 3.3-1.8 1.1-3.5 2.2-5.3 3.3-1.7 1.1-3.5 2.2-5.2 3.4-13.8 9-26.8 18.5-38.9 28.3-6.1 4.9-11.8 9.8-17.6 14.8-5.8 4.9-11.4 9.8-16.9 14.5-11.1 9.5-21.8 18.5-32.1 27-5.2 4.2-10.3 8.3-15.3 12.2-5.1 3.8-10 7.5-15.1 10.9-1.3.8-2.6 1.6-3.8 2.5-1.3.8-2.6 1.5-3.9 2.3-1.4.7-2.7 1.4-4.1 2.1l-2.1.9-.5.2-.6.2-1 .4c-2.5.9-5.3 1.9-8 2.6-1.3.4-2.6.7-3.9 1.1l-3.9.9c-1.3.3-2.6.5-3.8.8-1.3.3-2.5.5-3.8.7-1.2.2-2.5.4-3.7.6-1.2.1-2.4.3-3.6.4-2.4.3-4.7.4-7 .6-2.3.2-4.5.2-6.7.2-8.7.1-16.3-.5-23-1.3-3.3-.5-6.4-.9-9.1-1.4-2.8-.5-5.3-.9-7.5-1.5-2.2-.5-4.2-.9-5.9-1.4-1.7-.5-3.1-.8-4.2-1.1-2.3-.6-3.4-.9-3.4-.9s1.2.2 3.5.5c1.2.2 2.6.4 4.3.7 1.7.3 3.7.5 6 .7 9 1 22.4 2.2 39.1.8 8.3-.8 17.5-2.2 27.1-5 1.2-.4 2.4-.7 3.6-1.1 1.2-.4 2.4-.8 3.6-1.3 1.2-.4 2.4-.9 3.6-1.4 1.2-.4 2.5-1 3.8-1.5l1-.4.2-.1c.1 0 .2-.1.2-.1l.4-.2c.6-.3 1.1-.6 1.7-.8 1.1-.6 2.3-1.3 3.4-2 1.1-.8 2.3-1.5 3.5-2.3 1.1-.8 2.3-1.6 3.5-2.5 4.6-3.4 9.3-7.3 14.1-11.3 4.8-4 9.7-8.2 14.6-12.6 10-8.7 20.4-18 31.2-27.7 5.4-4.8 11-9.8 16.7-14.8 5.7-5 11.6-10.2 17.7-15.3 12.3-10.1 25.6-19.9 39.6-29.3 1.8-1.2 3.5-2.3 5.3-3.5 1.8-1.1 3.6-2.3 5.4-3.5 1.8-1.2 3.6-2.3 5.5-3.4l2.7-1.7 1.5-.9 1.4-.8c7.7-4.4 15.5-8.5 23.8-12.2 8.2-3.7 16.8-6.9 25.5-9.7 8.7-2.8 17.6-5.1 26.6-7.3 17.9-4.3 36.1-7.9 54.4-11.9 18.3-3.9 36.9-7.9 55.6-11.9 18.7-4 37.5-8.1 56.4-12.4 18.8-4.3 37.7-8.8 55.8-14.4 2.2-.7 4.6-1.4 6.7-2.2l3.2-1.1c1.1-.4 2.2-.9 3.4-1.3l1.7-.7.8-.3.7-.3 3.3-1.4c2.2-1 4.4-1.9 6.5-2.9 4.3-2.1 8.6-4 12.8-6.3l3.2-1.6c1.1-.5 2.1-1.1 3.1-1.7l6.2-3.5c16.4-9.5 31.9-20.4 46.7-32.1 14.9-11.7 29.2-24 43.3-36.3 7.1-6.2 14.1-12.3 21-18.4 3.5-3 6.9-6.1 10.3-9.1 3.4-3.1 6.8-6 10.1-9.1 26.8-24.4 51.4-49.3 73.5-74 11.1-12.4 21.5-24.6 31.3-36.7 9.8-12.1 18.9-24.2 27.4-35.9s16.3-23.2 23.6-34.2c3.6-5.5 7.1-10.9 10.4-16.2 3.4-5.3 6.5-10.5 9.5-15.5 12.2-20.1 21.9-38.2 29.7-53.2 2-3.7 3.7-7.3 5.4-10.7 1.7-3.4 3.3-6.5 4.7-9.5 1.4-2.9 2.7-5.7 3.9-8.2 1.2-2.5 2.3-4.8 3.2-6.9 3.8-8.3 5.8-12.7 5.8-12.7 1.4-3 4.9-4.3 8-2.9 3.5 1.3 4.8 4.9 3.5 7.9z"/><path d="M-764.4 478.5l2.3 3.6 2.3 3.7c1.5 2.5 3 5 4.4 7.5 2.9 5 5.6 10.2 8.3 15.3 5.2 10.4 10 21 14.2 31.8 4.2 10.8 7.8 21.9 10.8 33.2l1.2 4.4.9 4.2 1.9 8.3.9 4.2.8 4.3 1.5 8.7c3.6 23 4.9 46.3 3.9 69.5-1 23.2-4.1 46.3-9 68.9-4.9 22.6-11.8 44.8-20.1 66.4-8.4 21.6-18.2 42.5-29.4 62.7-22.4 40.4-49.8 78-81.4 111.6-15.8 16.8-32.7 32.6-50.6 47.2l-13.6 10.7c-4.7 3.4-9.3 6.9-14 10.2-9.4 6.6-18.9 13.1-28.6 19.3-19.4 12.4-39.5 23.8-60.5 33.6-20.9 9.9-42.6 18.2-65 24.3-22.4 6.1-45.6 9.9-68.9 10.3-22.8.3-45.5 1.1-68.2 2.3-11.4.6-22.7 1.3-34.1 2.1-11.4.8-22.7 1.8-34 2.8-11.4 1-22.7 2-33.9 3.3-11.2 1.4-22.3 2.9-32.5 6.4l.6-.2-2.7 1.1c-.8.3-1.5.6-2.3 1-1.5.6-3 1.4-4.6 2-3 1.4-6.1 2.9-9 4.5-3 1.5-5.9 3.2-8.8 4.9-1.5.8-2.9 1.7-4.3 2.6l-4.3 2.7-8.4 5.6-8.2 5.9c-2.7 2-5.3 4.2-8 6.2-1.3 1-2.6 2.1-3.9 3.2l-3.8 3.3c-1.3 1.1-2.6 2.2-3.8 3.3l-3.7 3.5c-2.5 2.3-5 4.6-7.3 7.1-2.3 2.4-4.7 4.8-7 7.3l-6.7 7.7c-2.3 2.5-4.3 5.2-6.4 7.9l-3.1 4-1.6 2-1.5 2.1c-2 2.7-3.9 5.6-5.9 8.4l-6.1 9 .4-.5c-1.3 2-2.5 3.9-3.8 5.9l-3.7 6c-2.4 4-4.8 8-7.1 12.1l-3.4 6.1c-1.1 2.1-2.2 4.1-3.3 6.2-2.2 4.1-4.3 8.3-6.3 12.5-.1.3-.5.4-.8.3-.3-.1-.4-.4-.3-.7 1.6-4.4 3.3-8.8 5.1-13.2 1.8-4.3 3.7-8.7 5.7-12.9 2-4.3 4.1-8.5 6.3-12.7 2.2-4.2 4.5-8.3 6.8-12.4l.4-.5-.2.2-.1.1c0 .1 0 .1 0 0l.1-.1.2-.3.3-.6.7-1.1 1.3-2.2 2.7-4.4c1.8-3 3.6-5.9 5.6-8.8l1.4-2.2 1.5-2.1 3-4.2c2-2.8 4-5.7 6.2-8.4l6.6-8.1c2.3-2.6 4.7-5.2 7-7.8 2.3-2.6 4.8-5.1 7.3-7.5l3.7-3.7c1.2-1.3 2.6-2.4 3.9-3.5l3.9-3.5c1.3-1.2 2.6-2.3 4-3.4 2.7-2.2 5.4-4.4 8.2-6.6l8.4-6.3c2.9-2 5.8-4 8.7-5.9l4.4-2.8c1.5-.9 3-1.9 4.5-2.7 3-1.8 6-3.5 9.2-5.2 3.1-1.7 6.2-3.2 9.4-4.8 1.6-.7 3.2-1.5 4.8-2.2.8-.4 1.6-.7 2.5-1.1l1.3-.5.6-.2c.1 0 .2-.1.2-.1l.6-.2c11.5-4 23.1-5.6 34.5-7.1 11.4-1.4 22.8-2.5 34.2-3.6a1971.98 1971.98 0 0 1 68.4-5.4c22.8-1.4 45.8-2.3 68.6-2.8 22.3-.6 44.5-4.3 66.1-10.3 21.6-6 42.7-14.2 63-23.9 20.3-9.7 40-20.9 59-33.2 9.5-6.1 18.8-12.5 28.1-19.1 4.6-3.3 9.1-6.6 13.7-10l13.3-10.4c17.5-14.3 33.9-29.7 49.4-46.2 30.9-32.9 57.6-69.7 79.4-109.2 10.9-19.8 20.5-40.2 28.6-61.2 8.1-21 14.7-42.6 19.5-64.5 4.9-21.9 7.9-44.3 8.9-66.7 1-22.4-.2-44.9-3.6-67l-1.4-8.2-.7-4.1-.9-4.2-1.9-8.4-.9-4.2-1-3.9c-2.9-10.8-6.3-21.5-10.3-31.9-4-10.5-8.5-20.7-13.5-30.7-2.5-5-5.1-10-7.9-14.8-1.4-2.4-2.8-4.9-4.2-7.3l-2.2-3.6-2.3-3.6c-1.7-2.8-.9-6.5 1.9-8.3 2.1-1.7 5.7-.9 7.5 1.9z"/><path class="st0" d="M-1192.2 1137.4c11.7-15.1 30.5-37.6 56.9-61.5 34.7-31.4 43.1-30 77.2-59.5 40.3-34.8 35.5-44.2 82.8-87.4 39.1-35.7 44.2-30.9 57.3-49.5 26.8-37.8 35.2-99 12.3-143.6-38.5-75.2-155.2-82.3-213.5-76.2-53.8 5.6-60.6 22.7-185.9 48.9-54.8 11.5-78.2 13.4-105.1 5.5-41.9-12.2-53.3-36.5-95.4-50.1-38.4-12.3-75.3-7-102.7.7-10.6-5.6-26.3-11.5-43.3-8.2-25.3 4.8-34.3 26.9-53.4 44.4-31.4 28.9-84.7 41.6-121.8 30.7-58.9-17.2-60.5-89-120.2-101.9-24.5-5.3-46.8 1.9-60.8 8.1"/><path class="st0" d="M-1155.6 667c8.8-15.5 24.5-37.4 50.8-49.8 44-20.7 81.3 1.7 100.1-21.5 11.5-14.3.1-26.6 17.3-67.2 3.8-9 6.4-13 6.5-20.5.4-22.2-21.1-39.2-31.6-47.5-8.3-6.5-49.8-39.2-97.3-28.7-31.9 7.1-26.5 25.9-65.9 41.5-43.4 17.1-64.4.6-88 22.3-17 15.6-12.7 30.2-32.4 42.6-16.1 10.1-26.7 6.1-48.7 9.1-34.8 4.8-72.6 28.6-87.5 62.3-2.6 5.9-16.4 40.8 3.1 73.7 15.6 26.2 42.4 34.1 48.9 35.8"/><path class="st0" d="M-1033.7 445.5c15.4 5 37.7 12.4 64.5 21.8 48.7 17.1 55.4 20.9 58.8 22.9 37.6 22.9 48.9 68.8 56 97.3 28 113.7-34.5 239.2-49.5 268.1M-1321 544.8c-10.4-3.1-26.1-6.9-45.3-7.5-21.5-.7-29.6 4.3-56.6 7-63.8 6.5-69.4-.6-85.5 9.6-21.5 13.7-17.5 30.3-40.2 41.3-13.8 6.7-22.1 3.9-51 3.3-48-1-86-1.8-110.4 19.8-6.3 5.6-15.3 15.9-20.9 34.8-1.3 4-12.2 36.3-45.4 48-21.8 7.7-40.9 2.1-47.4-.1-6.8-10.6-17.7-25.4-34.2-40.1-18.8-16.6-47.9-42.5-87.1-43.6-9.9-.3-33.9.7-61.6 19.3"/><path class="st0" d="M-1531.7 581.8c-2.6 7.9-7.2 19.1-15.6 30.8-7.1 9.8-13.9 15.9-21.4 22.5-8.8 7.7-21.5 17.7-38.6 27.3M-624 821.7c28.1-28.2 36.7-53.3 39.2-71.3 3.8-27.7-6.6-38.2-1.6-73.9 4.5-32 14.1-31.5 16.8-59.5 2.7-28.5-5.2-50.2-16-79.6-12.9-35.2-19.5-53.4-37.9-61.8-18.4-8.4-38.2-2.4-48.2 1.5-5 4.9-11.8 10.8-20.7 16.2-10.4 6.4-20.2 10-27.6 12.1"/><path class="st0" d="M-671 474.9c3.6-4.9 8.7-12.6 14-22.6 10.6-20.1 8.2-24 15.7-35.6 14.1-21.6 36.7-29.2 41.2-30.7 6.5-2.1 15.6-5 27.1-3.4 23 3.1 40.8 22 48 40.4 6.4 16.3.7 22.7 4.7 43.1 4.4 22.6 16.2 39.2 25 49.3 8.9 25.2 17.3 59.8 14.1 97-2.1 24.6-7.8 33.4-13.3 38.6-10.9 10.3-21.6 6.8-34 18.3-9.1 8.5-12.1 18.6-16.1 32.9-8.4 30.4-.7 40.8-7 57.3-4.5 11.9-16.4 27.2-51 38.6"/><path class="st0" d="M-493.1 513.2c8.8-3.2 21.4-9.5 28.5-22.2 8.2-14.7 4.1-29.5-1-56.3-10.9-57.1-3.4-48.7-11.8-78.1-2.8-8.3-23.9-69-45.5-77.3-2.1-.8-6.9-2.7-11.7-.8-7.9 3-10.4 14-12.5 23.9-3.2 14.7-.5 17.5-3.1 35.7-2.7 18.9-6.4 25.1-7.7 27.2-5.3 8.2-12.3 13.1-17.2 15.7M-1306.1 543.2c84.7-20.2 154.1-2 168.7 32.8 3.8 9 7.7 28.2 2.1 49.4-6.1 23.5-20.8 37.7-26.7 42.9"/><path class="st0" d="M-370.8 86.8c-5.9 8.7-15.4 20.5-30 30.4-19.9 13.6-28.8 9.7-56.6 22.7-35.2 16.4-52.1 36.9-56.6 42.8-8.8 11.3-18.6 24.4-16.7 39.9 1.3 10.1 6.7 13.8 7.4 24.3.9 13.5-6.9 25.1-13.9 33"/><path class="st0" d="M-473.7 365.6c4.6-10.2 14.2-35.4 9.7-67.7-5-35.6-24-58.5-31.5-66.6-3.5-14.7-5.3-34.1 5-48.5 10.5-14.6 28-16.4 42.2-20.9 22.4-7 51.2-25 78.5-73.3M-1126.9 660.9c30.8 6.2 77 19.9 119.1 52.4 30.1 23.3 40.4 42.5 44.8 51.9 2.8 6.1 8.9 20.9 10.9 47 3.5 46.6-9.5 87.4-21.9 115.1M-804 475.3c-15.3-8.9-20.7-18.2-22.6-25.4-2.4-8.7.3-14-3.5-22.4-4.5-9.9-13.8-14.8-19.7-17.7-66.8-33.4-100.1-50.1-144.7-50.5-9.8-.1-2.8.6-54.6 4.1-58.2 3.9-58.6 2.5-76 4.8-18.1 2.4-95.1 12.6-99.7 41.3-1.9 11.9 8.8 26.1 20.1 31.8 12.2 6.2 26.5 3.1 29.2 2.4 9.1-2.2 11.9-5.9 20.7-6.6 8.4-.7 15.5 2 20 4.2"/><path class="st0" d="M-1182 445.1c-10.9 3.2-30.5 6.9-49.2-1.8-42.6-19.9-56-93.6-27.4-128.3 26-31.6 80.4-23.4 107.1-19.4 44.4 6.7 44.1 22.4 85.8 25.6 45 3.4 55.3-14 91.7-2.7 26.9 8.4 52.1 27.5 55.5 30 18.2 13.9 16.9 18.2 31.5 26.3 25.5 14.3 41.6 8.6 52.5 22.3 4.5 5.7 8.9 15.8 6.1 34.6"/><path class="st0" d="M-1251 303.6c-1.9-7.7-8-27.5-26.6-43.4-2.7-2.3-18.4-15.4-41.7-19-10.3-1.6-13.2.1-25.3-.9-17.5-1.4-31.3-6.4-40.3-10.4 10.7.6 27.2.6 46.6-3.5 16.6-3.5 23.4-7.4 43.6-14.2 30.8-10.2 46.1-15.4 63.3-15.3 21.8.1 59.8 7.3 70 30.9 5.4 12.4-.9 20.1 7.6 34 9.1 14.8 24.9 20 27.4 20.8 15.1 4.7 22.9-1.1 35.9-.4 12.2.6 29.8 6.9 50.7 34.7"/><path class="st1" d="M-1387.1 229c-26.7-7.2-42.2-19.7-51-28.9-41.8-44-40-129.2 7.5-210.5-5.7 15.5-12.7 39.2-14.6 68.8-1.7 26.7-4.3 68.4 17.1 101.2 38.7 59 131.3 51.5 136.4 51"/><path class="st2" d="M-656 451.3c-15.7-31.4-34.3-52.3-47.6-65.1-13.7-13.2-54.5-52.5-79.4-41.2-8.7 4-6.7 10.2-28.3 28.9-12.3 10.6-20.2 14.9-29.3 15.2-6.8.2-12.3-1.7-15.5-3.1"/><path class="st2" d="M-671.9 424.1c-4-26.2-13.7-57.7-38.4-81.4-25.4-24.4-44.1-18.9-80.5-47.4-23.8-18.7-54.5-40.8-57.8-75.4-3.4-36 24.3-64.6 33.2-73.2-14.5 6.1-39.1 19.5-53.9 46.3-27.5 50 .2 109.1 11 126.8.5.8.9 1.4 1.1 1.8 14.3 22.7 33.5 37 49.7 45.9M-816.3 146.8c7-7.9 17.8-19.5 32.3-32.2 10.9-9.6 14.9-12 20-17.1 9.8-9.8 20.7-26.8 24-58.4"/><path class="st2" d="M-738.9 40.5c16.7 26.7 13.2 45.7 11.5 52-2.6 10-8.4 18.1-19.9 34.2-11.1 15.5-13.1 14.8-20.8 26.8-7.6 11.7-15.4 23.7-17.2 39.9-1.8 15.9 2.9 20.8 3.5 35.8.5 12.7-2.3 31.3-18.4 54.7"/><path class="st0" d="M-1048.6 688.7c-4.1.1-10.4.7-17.5 3.7-1.3.5-5.6 2.4-9.5 5.4-8.6 6.7-13.5 18.1-13.7 26.9-.5 16.1 15.3 18.2 29.9 44.8 9.3 17 13.6 34.2 16.6 46.4 6.3 25.7 3.2 30.7 9.8 46 8.1 18.9 20.4 28.7 25.7 33 14.3 11.5 30.6 13.9 39.2 14.8M-1331.4 879.6c16.8-9.4 12.6-21.3 30.3-37.4 17-15.5 44.7-25.4 72.6-21.1 30.6 4.6 64.1 31.7 65.6 63 1.5 29.3-25.5 52.8-46.3 70.9-9.3 8.1-17.9 13.7-23.4 17-6.5 3.9-25.1 14.5-55.2 21-17.5 3.8-67.9 14.7-126.3-5.8-23.9-8.4-63-22-64.9-46.3-1.5-19.1 20.5-37 34.1-44.6 15.3-8.6 29.6-10.4 50.9-12.4 38.5-3.5 46.7 4.7 62.6-4.3z"/><path class="st0" d="M-1083.9 703.4c-18.2-2.4-45.2-2.8-73.8 8.9-30.2 12.4-47.9 32.5-63.9 50.6-19.3 21.9-31.3 43.2-38.4 58.2M-1039.4 836.6c-.7-1.6-13.1-28.6-39.2-31.4-20.6-2.2-35.6 12.1-38.5 14.9-15.4 14.7-12.2 29.1-25 55.6-5.2 10.9-14.1 25.7-29.8 41.3M-1423.1 887.7c-10.6-8.7-30.4-22.2-57.6-25.7-22.2-2.8-39.6 2.4-63.3 9.2-39.2 11.3-38.6 20-68.6 26.7-39.3 8.8-46.6-5-70.5 6.1-26.3 12.2-46.7 42.5-47.7 75.1-.7 23.3 8.7 41 13.5 48.7"/><path class="st0" d="M-1478.4 950.4c-7 1.3-18 2.2-27.9-3.2-18-9.9-14.9-31.1-27.3-35.6-17-6.1-29.4 31.8-65.1 38.3-25.7 4.7-34.1-12.3-65.2-6-7.7 1.6-25.5 5.4-39.1 20.3-22.1 24.1-16 58-15 63"/><path class="st0" d="M-1571.3 881.3c-16.6 11.5-27.4 22.9-34.4 31.5-5.6 6.9-9.6 13.1-18.1 19.1-10 7-20.4 9.5-27.9 10.5"/><path class="st3" d="M-1086.3 734.6c-7.8-1.5-20.9-3-30.8 1.9-8.6 4.2-10 15-12.7 39.1-4.2 37.8-2.5 46.7-5.2 62.1-2.5 14-8.7 33.9-26.2 56.7"/><path d="M-627.5 985.2s0 .6.1 1.7.2 2.8.3 5.1c.2 4.5.5 11 .5 19.3s-.2 18.4-1.1 30c-.9 11.5-2.3 24.5-4.8 38.6-.6 3.5-1.3 7.1-2 10.7-.7 3.6-1.5 7.3-2.4 11-1.7 7.5-3.5 15.2-5.6 23.1-4.1 15.8-9.3 32.2-15.6 48.8-3.2 8.3-6.6 16.7-10.5 24.9l-1.4 3.1-1.5 3.1c-1 2.1-2 4.1-3.1 6.2-1.1 2-2.2 4.1-3.2 6.2l-1.6 3.1-1.7 3c-4.5 8.2-9.6 16.1-14.9 24-1.4 1.9-2.7 3.9-4.1 5.8-.7 1-1.4 1.9-2.1 2.9l-2.2 2.8-4.4 5.6-4.6 5.5-2.3 2.7-2.4 2.6-4.8 5.2-5 5c-1.7 1.7-3.3 3.4-5.1 4.9-1.8 1.6-3.5 3.2-5.3 4.7-.9.8-1.8 1.6-2.7 2.3l-2.7 2.2-2.7 2.2c-.9.7-1.8 1.5-2.8 2.2-1.9 1.4-3.8 2.8-5.7 4.1-.9.7-1.9 1.4-2.8 2.1l-2.9 1.9c-2 1.3-3.9 2.5-5.8 3.8-2 1.2-4 2.3-6 3.5-2 1.1-4 2.3-6 3.4-2.1 1-4.1 2-6.1 3.1-2 1-4.1 2.1-6.2 2.9-2.1.9-4.2 1.8-6.2 2.7-1 .4-2 .9-3.1 1.3-1 .4-2.1.8-3.1 1.2-16.7 6.3-33.6 10-49.8 11.9-8.1 1-16 1.4-23.7 1.5-7.7.1-15.1-.1-22.2-.7-14.2-1.1-27-3.2-38.3-5.7-11.3-2.5-20.9-5.3-28.8-7.9-7.9-2.6-14-4.9-18.1-6.5-4.1-1.6-6.3-2.6-6.3-2.6-.3-.1-.4-.4-.3-.7.1-.3.4-.4.7-.3 0 0 2.2.9 6.3 2.5s10.2 3.8 18.1 6.3c7.9 2.5 17.5 5.2 28.7 7.6 11.2 2.4 24 4.4 38.1 5.4 7 .5 14.4.7 22 .6 7.6-.2 15.5-.6 23.5-1.6 16-2 32.8-5.8 49.2-12.1 1-.4 2.1-.8 3.1-1.2 1-.4 2-.9 3-1.3 2-.9 4.1-1.8 6.1-2.7 2.1-.8 4.1-1.9 6.1-2.9s4-2 6-3.1c2-1 3.9-2.3 5.9-3.4 2-1.2 4-2.2 5.9-3.5 1.9-1.3 3.8-2.5 5.7-3.8l2.9-1.9c.9-.7 1.9-1.4 2.8-2 1.9-1.4 3.7-2.8 5.6-4.1.9-.7 1.8-1.4 2.7-2.2l2.7-2.2 2.7-2.2c.9-.7 1.8-1.5 2.6-2.3 1.7-1.6 3.4-3.1 5.2-4.7 1.8-1.5 3.4-3.2 5-4.9 1.6-1.7 3.3-3.3 4.9-5l4.7-5.2 2.4-2.6 2.2-2.7 4.5-5.4 4.3-5.6 2.1-2.8c.7-.9 1.4-1.9 2-2.9 1.3-1.9 2.7-3.8 4-5.7 5.2-7.8 10.2-15.7 14.6-23.8l1.7-3 1.6-3.1c1.1-2 2.1-4.1 3.2-6.1 1-2.1 2-4.1 3-6.2l1.5-3.1 1.4-3.1c3.8-8.2 7.1-16.6 10.3-24.8 6.2-16.5 11.2-32.8 15.2-48.5 2-7.8 3.8-15.5 5.4-22.9.8-3.7 1.6-7.4 2.3-11 .7-3.6 1.3-7.1 1.9-10.6 2.4-13.9 3.7-26.7 4.5-38.2.8-11.4.9-21.4.9-29.6-.1-8.2-.3-14.7-.6-19-.1-2.2-.2-3.9-.3-5-.1-1.1-.1-1.7-.1-1.7-.1-1.4 1-2.6 2.3-2.7 1.3 0 2.5 1.1 2.6 2.5z"/><path class="st3" d="M-622.4 837.7c-9.5 50.4-32.4 135.9-94.1 223.3-68.7 97.2-149.5 146-194.2 172.3-93.8 55.2-182.6 77.2-243.1 86.7M-627.9 996.2c12.4 30.6 24.6 66.5 34.5 107.2 12 49.1 17.8 93.8 20.5 131.8M-760.6 484c22.6 29.4 67 95.5 78.9 191 15.5 125.1-34.9 219.5-52.9 249.8M-1263.2 1143.9c-13 5.1-31.5 14-49.7 29.7-21.9 18.9-31.3 37.6-49.2 68.6-12.1 21-30.2 51.3-54.3 88M-832 489.5c15.8 37.8 35.9 98.6 38.4 175.1 1.3 39.3 3.7 160.7-73 275.1-108 161-291.7 187.4-322.3 191.3M-617.4 481.2c9.5 19.7 22.8 53.7 25 98 2 39.3-5.6 71.1-12 91"/><path class="st3" d="M-636 412.2c3.3-2.1 23.7-14.6 48-7.3 2.5.7 20.4 6.4 31.3 24 12.4 20 5.2 38.1 4 68.7-1.6 38.3 8.5 34.1 14.7 96.7 7.6 77.4-6.9 96.7-11.8 102.5-10.6 12.4-24.2 18.4-34.2 21.5M-524.3 278.2c-4.2 12-8.6 30-6 51 4.4 35.9 25.5 51.3 37.5 81 8.5 21.1 14 53.6-1.5 102M-501.8 230.2c-2.4-.9-11.7-4.9-16.5-15-4.7-10-3.3-22.2 3.6-31.7M-953.3 801.7c4.4-9.2 14.5-33.9 7.5-63-8.7-36.2-40.4-64.6-81-73.5M-1000.7 594.2c10.5 4.3 97.1 41 117.9 129.5 8.8 37.4 2.5 69.7-3 88.5M-1072.4 432.2c-10.5.7-22.4 3.5-31 12-16.1 15.9-8.1 38.6-19 72-6.4 19.4-16.2 33.6-23 42M-1131.9 605.7c4.8-10.8 13.2-25 27.5-37.5 41.7-36.3 97.5-25.7 106-24M-978 508.2c14.4 1.7 42.4 7 70 27.3 44.1 32.5 54.9 79.6 57.3 92M-1141.4 576.2c-4.1 2.4-10.1 6.6-16 13-9.7 10.7-13.4 21.7-14.5 24.5-10.8 27.9-73 47.7-89.5 53-44.7 14.2-101.9 32.5-124.5 8-8-8.7-10.8-21.9-28-33.5-9.3-6.3-18.4-9.1-24.5-10.5M-1422.7 588.9c-28.7-16.4-48.1-16.4-61.3-11.3-20.2 7.7-24 26.5-46.7 47.3-19.9 18.3-42.7 27.6-62.7 32.7M-1385.4 563.7c10.8 6 36.3 18 70 15.8 48.6-3.2 78.9-33.8 86-41.3M-1016.4 363.2c-31.9 6.4-53.7 17.5-54 29-.3 13.7 29.6 24.7 44 30 51 18.8 75.6 5.2 112 20 16 6.5 38.1 20.1 59 52M-1247.3 302.2c28.6 4.9 53.3 10.2 73.5 15 44.1 10.4 63.2 17.4 72 34.5 3 5.8 4.1 11.2 4.5 15M-1823.4 704.2c6.8 6.1 18.7 15 35.3 18.7 36.9 8.2 68.1-15.4 74-20 32.9-25.6 24.4-54.1 56-80 19.4-15.9 41.8-20.9 58-22.7"/><path class="st3" d="M-1049.4 797.2c9.3 19.9 28.2 31.4 46 29 19.1-2.6 29-20.4 31-24 12.8-23 2.4-47 1-50M-1212.4 826.2c-10.7 5.7-25 15.3-37 31-25.6 33.7-12.4 59.4-33 83-24.6 28.1-73.4 26-101 19-44.1-11.2-67.7-43.7-74-53M-1175.4 855.2c-3.1 11.3-8.1 27-16 45-4.8 10.9-11.3 25.2-23 42-10.1 14.6-20.4 25.6-28.3 33.3M-1548.7 913.9c1.8-3.5 9.1-16.6 23.3-20.3 17.8-4.7 39.8 7.2 49.7 30.3M-824.3 384.7c3-2.5 16-12.8 33-10.5 14.8 2 23.8 12.4 28.5 18 16.3 19.4 10.6 35.7 21 60 5 11.7 14.8 27.8 36 43.5M-785.3 341.2c-7-1.1-46.9-7.7-73.5-45-27.5-38.6-19.4-80.3-18-87M-776.3 174.7c-8.1 3.7-30 15.1-43.5 40.5-8 14.9-10 28.9-10.5 37.5M-1358 233.5c33.6-3.2 71-6 112-8 21.5-1.1 41.6-1.8 62 10 15.8 9.1 25.3 21.8 30.7 30.7M-1444 88.2c-3.2 11.9-9.1 40.2 1.3 73.3 13.7 43.3 45.9 65.4 55.3 71.3"/><path d="M-628 972.4s.7 2.3 2.1 6.6c.7 2.1 1.5 4.8 2.4 8 1 3.1 2 6.8 3.1 10.9 1.2 4.1 2.2 8.6 3.4 13.6.6 2.5 1.1 5.1 1.7 7.8.6 2.7 1.2 5.5 1.7 8.4.5 2.9 1.1 5.9 1.7 9 .5 3.1 1 6.3 1.5 9.5.3 1.6.5 3.3.8 5l.6 5.1c.4 3.4.9 7 1.2 10.6 1.5 14.4 2.1 30.2 1.9 46.8-.1 4.2-.3 8.4-.4 12.6-.2 4.3-.6 8.6-.9 12.9-.1 1.1-.2 2.2-.2 3.3l-.1 1.6-.2 1.6c-.3 2.2-.5 4.4-.8 6.6-.6 4.4-1 8.9-1.8 13.4s-1.5 9-2.3 13.5c-1 4.5-1.9 9-2.9 13.6-.9 4.6-2.1 9.1-3.2 13.6-.6 2.3-1.1 4.6-1.7 6.9l-1.8 6.9c-2.5 9.2-5.1 18.4-8.3 27.5l-1.2 3.4-1.3 3.4c-.9 2.3-1.7 4.5-2.6 6.8-1.9 4.4-3.6 9-5.8 13.3-4 8.8-8.7 17.3-13.7 25.6-5.3 8.1-10.7 16-16.9 23.3-1.5 1.8-3 3.7-4.6 5.4-1.6 1.7-3.3 3.4-4.9 5.2-3.2 3.5-6.7 6.6-10.1 9.8l-2.6 2.4c-.9.8-1.8 1.5-2.7 2.3-1.8 1.5-3.5 2.9-5.3 4.4-3.7 2.8-7.3 5.7-11.1 8.1-.9.6-1.9 1.3-2.8 1.9-.9.6-1.9 1.3-2.8 1.9-1.9 1.2-3.8 2.4-5.7 3.5-1.9 1.2-3.9 2.2-5.8 3.3-1 .5-1.9 1.1-2.9 1.6s-1.9 1-2.9 1.5c-1.9 1-3.9 2-5.8 2.9-2 .9-3.9 1.8-5.9 2.7-1.9.9-3.9 1.7-5.8 2.5-2 .8-3.9 1.6-5.8 2.3-2 .7-3.9 1.4-5.8 2.1-1.9.7-3.9 1.3-5.8 1.9-1 .3-1.9.6-2.9.9-1 .3-1.9.6-2.9.8-1.9.5-3.8 1.1-5.7 1.6-7.6 2-14.9 3.6-22.1 4.8-14.3 2.4-27.5 3.6-39.3 3.9-11.7.3-22 0-30.4-.7-8.4-.6-15-1.5-19.4-2.1-4.5-.7-6.8-1.1-6.8-1.1s2.4.4 6.9.9 11.1 1.2 19.4 1.6c8.4.4 18.6.6 30.3 0 2.9-.1 5.9-.4 9-.6 3.1-.3 6.3-.5 9.5-.9 6.5-.7 13.3-1.7 20.4-3 7.1-1.3 14.4-3 21.8-5 7.4-2.1 15.1-4.6 22.7-7.6 1.9-.7 3.8-1.6 5.7-2.3 1.9-.8 3.9-1.6 5.8-2.5 1.9-.9 3.8-1.8 5.8-2.7 1.9-1 3.8-2 5.7-2.9 1-.5 1.9-1 2.9-1.5.9-.5 1.9-1.1 2.8-1.6 1.9-1.1 3.8-2.1 5.7-3.3 1.9-1.2 3.7-2.4 5.6-3.5.9-.6 1.9-1.2 2.8-1.9.9-.6 1.8-1.3 2.8-1.9 3.7-2.5 7.2-5.3 10.8-8.1 1.8-1.5 3.5-3 5.3-4.4.9-.7 1.8-1.5 2.6-2.2l2.5-2.4c3.3-3.2 6.8-6.3 9.9-9.7l4.8-5.1 4.5-5.4c6.1-7.2 11.4-15 16.5-23 4.8-8.2 9.5-16.5 13.3-25.3 2.1-4.3 3.8-8.8 5.6-13.2.9-2.2 1.7-4.5 2.5-6.7l1.2-3.4 1.1-3.4c3.1-9 5.6-18.2 8-27.3.6-2.3 1.2-4.6 1.7-6.8.6-2.3 1.1-4.6 1.7-6.8 1.1-4.6 2.2-9.1 3.1-13.6.9-4.5 1.9-9 2.8-13.5.7-4.5 1.4-9 2.2-13.4.8-4.4 1.2-8.8 1.7-13.2.2-2.2.5-4.4.7-6.5l.2-1.6.1-1.6c.1-1.1.1-2.2.2-3.2.3-4.3.6-8.6.8-12.8.1-4.2.2-8.4.3-12.5 0-1 .1-2 .1-3.1v-3c0-2-.1-4-.1-6s-.1-4-.1-5.9c-.1-2-.2-3.9-.3-5.8l-.3-5.7c-.1-1.9-.2-3.8-.4-5.6-.3-3.7-.6-7.4-1-10.9-.3-3.6-.8-7-1.2-10.5-.2-1.7-.4-3.4-.6-5-.3-1.7-.5-3.3-.8-4.9-.5-3.2-1-6.4-1.5-9.4-.6-3-1.1-6-1.7-8.9-.5-2.9-1.2-5.6-1.7-8.3-.6-2.7-1.1-5.2-1.7-7.7-1.2-4.9-2.3-9.4-3.4-13.4s-2.1-7.6-3.1-10.7c-.9-3.1-1.7-5.7-2.4-7.9-1.4-4.3-2.1-6.6-2.1-6.6-.4-1.3.3-2.7 1.6-3.2 1.8-.6 3.2.1 3.6 1.4z"/><path class="st3" d="M-1184.4 542.2c-10 9.3-25 23.9-42 43-26.3 29.5-24.2 32.3-37 43-39.2 32.5-89.3 29.4-95 29-24.6-1.9-43.9-10.3-56-17M-1366.7 884.2c-1.1 4.3-4 18.5 4 30 12.1 17.5 39.2 13.6 46 12.7 29.9-4.3 46.9-28.9 50.7-34.7M-1184.4 732.9c.4 8.8.3 29.9-12.3 52-10.6 18.7-24.9 29-32.3 33.7M-1049.4 790.2c12.9.6 19.7-3.4 23-6 16.5-13.1 17.1-48.6-4-86M-1037.9 818.2c1.1 6.4 6.2 30.1 28 48 19 15.6 39.4 17.6 46.5 18M-1050.7 365.5c-39.8 11.9-69.8 19-91.3 23.3-11.9 2.4-29.7 5.7-35.3 18.7-2.7 6.2-3.3 15.9 2.7 23.3 5 6.3 13.5 9.4 22 8M-992.7 360.9c12.7 13.9 39.2 38.9 80.7 54 33.1 12.1 62.3 12.9 80 12M-783.8 351.7c14.2 5.1 55.3 22.1 82.5 66 16.1 26 20.9 51 22.5 66M-1248.4 305.7c-1.9 5-6.1 17.8-1 31.5 4.4 11.8 15.1 22.7 27.5 26.5 7.8 2.4 14.4 1.5 22.5 7.5 3.9 2.9 6.5 6.2 8 8.5M-1060.7 321.5c23.7 8.9 42.9 12.1 56.7 13.3 11.2 1 24.4 1.2 35.3 10.7 6.2 5.4 9.5 11.9 11.3 16.7M-1120 285.5c-10.1-.6-25.5-2.1-44-6-40.3-8.6-57.2-21-92-30.7-16.3-4.5-40.3-9.6-71.3-10M-848.3 693.7c4.4 17.6 9.5 46.2 6 81-1.4 13.7-12.7 110.1-96 168-15.4 10.7-42.3 26.4-81 34.5"/><path id="foliage" d="M-180.9 133.6c-3-1-6-1.6-8.9-2-1.2-6.6-3.8-11.7-8.2-14.7-10.2-6.9-20.2 4.5-54.4 7.1 5.6-9.6 6.9-19.6 2.6-27.4-6.2-11.2-22.4-14.8-40.1-10.3 1-4.7.5-9.2-1.7-13.1-4.2-7.5-13.7-10.9-24.8-9.9-.3-1.5-.8-2.9-1.6-4.2 3.3-1.2 6.7-2.7 9.9-4.5 20.2-11.3 30.6-31.1 23.2-44.2-3.8-6.8-11.7-10.5-21.2-10.9 10.2-11.9 13.9-25.4 8.3-35.4-1-1.7-2.2-3.3-3.6-4.6 6.3-9.2 8-19.2 3.8-26.9-3.8-6.8-11.7-10.5-21.2-10.9 10.2-11.9 13.9-25.4 8.3-35.4-6.2-11.2-22.4-14.8-40.1-10.3 1-4.7.5-9.2-1.7-13.1-4.2-7.5-13.7-10.9-24.8-9.9-.3-1.5-.9-2.9-1.6-4.3-1.9-3.3-4.8-5.7-8.5-7.3-2.5-11.5-9.2-19.9-17.8-20.5-3.3-.2-6.6.7-9.5 2.7-2.6.4-5.3 1.2-7.9 2.2-3.7-9.3-10.2-15.6-17.8-16.1-9.8-.7-19 8.2-23.6 21.4-2.6-2.6-5.7-4.2-9.2-4.5-6.6-.5-12.8 4.2-16.9 11.8-1.1-.4-2.3-.7-3.5-.8-3.7-.3-7.2 1.2-10.2 3.9-1.8-1.7-3.9-2.8-6.3-3.1-3.8-.4-7.5 1.4-10.5 4.7-8-4.7-16.3-5.6-22.2-1.4-4.9 3.5-7.1 9.8-6.6 17.1-9.9-6.8-20.6-8.6-27.8-3.5-8.1 5.7-9.5 18.4-4.6 31.6-3.7-.4-7.1.4-9.9 2.4-5.4 3.8-7.2 11.4-5.5 19.8-.8.3-1.5.6-2.3 1 2.1-9.4.5-18-5.3-22.7-7.6-6.3-20.2-4.4-31.7 3.7-.6-3.7-2.2-6.8-4.9-9-5.1-4.2-12.9-4-20.6-.2-.7-1-1.4-1.9-2.4-2.6-2.8-2.3-6.5-3.2-10.5-2.8-.5-2.4-1.6-4.6-3.3-6.1-3.7-3.3-9.4-3.4-15.3-.9-3.4-27.9 5.3-55.9.8-56.9-4.8-1.1-18.6 30.6-26.2 30.5h-.2c-1.9-1.2 16.6-22.4 32.5-53.7 16.7 1.6 31.1-5.6 32.6-16.6.8-6-2.3-11.9-7.9-16.6 11.8-2.6 20.4-9.1 21.6-17.9 1.4-9.8-6.9-19.5-19.8-25 2.8-2.4 4.6-5.4 5.1-8.8.9-6.6-3.4-13.1-10.6-17.6.5-1.1.8-2.2 1-3.4.5-3.6-.7-7.3-3.2-10.4 1.8-1.7 3.1-3.7 3.5-6 1.1-5.9-3.4-11.9-10.7-15.7-1.3-6.7-2.7-14-4.2-21.9-2.1-11.2-4-20.1-5.6-27.4 4.9-4.1 9.2-10 12.1-17.3 6.6-16.5 3.3-33.4-7.5-37.8-5.6-2.2-12.1-.6-18 3.7.4-12.1-4-22-12.2-25.3-9-3.6-20.1 1.8-28.5 12.6-.4-.1-.7-.3-1.1-.4-1.7-2.8-3.9-4.9-6.8-6-2.9-1.2-6-1.2-9.2-.3-6.9-3-14.3-6.7-22.3-11.6-.1-.9-.4-1.9-.7-2.8-2.1-5.7-7.7-9.4-14.9-10.8 9.1-7.9 13.6-17.7 10.5-26-3.4-9.2-15.3-13.9-29.3-12.6 1.3-3.5 1.5-7 .3-10.2-2.3-6.2-9.2-9.9-17.8-10.4-.1-1.2-.3-2.3-.7-3.5-1.3-3.4-4.1-6-7.8-7.7.8-2.4.9-4.7.2-7-2.2-6.6-11-9.8-21.1-8.3-1.9-15.9-11.2-27.8-21.9-27.4-6 .2-11.3 4.3-14.9 10.7-4.6-11.2-12.6-18.5-21.4-18.1-9.9.4-18 10.2-21.2 23.9-2.9-2.3-6.2-3.6-9.6-3.5-6.6.2-12.3 5.6-15.5 13.6-1.1-.3-2.3-.4-3.5-.4-1.3 0-2.5.3-3.7.7-6.5-.3-16.9-1-29.6-2.6-.4-4.1-2.1-7.6-5.1-9.5-2.4-1.5-5.3-1.9-8.3-1.3-.9-4.2-3-7.6-6.4-9.5-3.5-2.1-7.8-2.2-12.2-.6-1.2-3.1-3.2-5.6-5.9-7.1-5.6-3.3-13.2-1.9-20.1 3-.7-7.1-3.7-12.9-8.8-15.9-6.9-4-16.1-2.2-24.7 3.8.5-8.5-2.2-15.7-8-19.1-1.9-1.1-3.9-1.7-6.1-1.9 2.6-8.6 1-16.8-4.5-20-2.4-1.4-5.3-1.7-8.4-1-1-4.1-3.3-7.5-6.7-9.3-3.6-1.9-7.9-1.9-12.2-.2-1.3-3-3.4-5.4-6.1-6.9-5.8-3.1-13.2-1.4-20 3.7-1-7.1-4.1-12.7-9.4-15.6-7-3.8-16.2-1.6-24.6 4.7.2-8.5-2.8-15.6-8.7-18.8-10.2-5.5-25.3 2.8-33.8 18.5-.1.2-.2.3-.2.5-7.4-.4-14.4 4.7-19.2 13-4.2-7.1-10.2-11.8-17.1-12.4-9.2-.9-18.1 5.6-24.2 16.2-3.6-9.2-10-15.5-17.8-16.3-13.4-1.3-25.9 14.4-27.8 34.9-.6.7-1.1 1.5-1.6 2.4-3.8-1.9-7.8-2.4-11.4-1-3.8 1.5-6.6 4.8-8.1 9.1-3.2-1-6.3-1-9.2.2-6.1 2.4-9.7 9.1-10.2 17.6-6-3.9-12.3-5.2-17.9-3-7.5 2.9-11.8 11.2-12.4 21.7-6.3-5.7-13.7-8.1-20-5.7-5.8 2.2-9.6 8.2-10.8 15.8-11.3-11.5-26.2-15.3-34.4-8.4-4.6 3.9-6.2 10.4-5.1 17.7-10.5-5.9-21.3-6.7-28-1-7.5 6.4-7.8 19.1-1.9 31.9-3.7 0-7.1 1-9.7 3.2-5 4.3-6.2 12-3.8 20.2-1.1.5-2.1 1.1-3 1.9-2.8 2.4-4.3 5.9-4.6 9.9-2.5 0-4.8.7-6.6 2.2-6.4 5-5.4 17.1 2.3 27.2-5.4 5.7-7.8 12.4-5.9 18.5 1.3 4.2 4.5 7.4 8.8 9.6.1 2.1.3 4.2.6 6.3-6.3 6.6-9.2 14.2-7 21.1 3 9.4 14.6 14.7 28.6 14.1-1.5 3.4-1.8 6.9-.8 10.2 2 6.3 8.6 10.4 17.2 11.4 0 1.2.2 2.4.5 3.5 1.1 3.5 3.7 6.3 7.3 8.1-.9 2.3-1.2 4.7-.6 6.9 1.5 5.4 7.4 8.9 14.9 9.5-5.4 4.2-13.6 8.8-26.1 13.7-2.7-3.7-5.9-7.7-9.6-11.8 6.7-14 5.4-28.6-3.6-34.1-5.2-3.1-11.8-2.6-18.4.7 2.3-11.8-.3-22.3-7.9-26.9-8.4-5.1-20.6-1.4-30.8 8.3-1.1-3.5-3.2-6.4-6.1-8.2-5.7-3.4-13.3-2.1-20.4 2.8-.8-.9-1.7-1.7-2.7-2.3-3.1-1.9-6.9-2.2-10.8-1.2-.8-2.3-2.2-4.3-4.2-5.6-6.9-4.6-18.3.5-25.4 11.2-.8 1.2-1.5 2.5-2.2 3.8-4.7 1.6-9.2 3.8-13.1 7-2.5 2-4.6 4.2-6.3 6.5-.4 0-.8-.1-1.2-.1-6.5 0-12.3 5-15.9 12.7-4.2-5.8-9.7-9.3-15.6-9.3-8 0-15.1 6.2-19.4 15.8-3.8-7.6-9.8-12.5-16.6-12.5-8.9 0-16.5 8.5-19.6 20.5-8.3 2.6-16.3 6.8-20.5 13.9-7.4 12.5 1.9 26.5 10.8 44.6-5 3.2-7.9 7.6-7.8 12.2.2 4.1 2.8 7.8 7 10.6-8.5 2.4-14.7 8-15.4 15-.2 2 .1 4 .7 5.9-1.5 1.1-2.8 2.5-3.8 4-6.6 10.3.1 26.5 15.2 36.2.5.3.9.6 1.4.9-1.9 1-3.5 2.5-4.7 4.3-1.6 2.5-2.2 5.5-2 8.5-7.2-9-21.5-10.6-35.8-5-1.5-6.4-5-11.6-10.4-14.2-5.6-2.7-12.3-2.1-18.5 1.1-1.2-.5-2.5-1-3.7-1.5 1.1-13.5-3.3-24.8-11.9-27.7-4.2-1.4-8.7-.5-13.1 2-2.1-4.5-5.6-8-10.2-9.5-8.2-2.8-17.4 1.5-23 9.9-2.8-6.7-7.5-11.8-13.7-13.9-11.2-3.8-24.2 3-32.9 15.9-4.9-4.4-10.7-6.7-16.6-5.8-7.6 1.2-13.6 7.3-16.7 15.9-6.6-14-17.8-22.5-27.4-19.7-11.3 3.3-16 21.4-10.5 40.3.8 2.6 1.7 5 2.7 7.3-.2.1-.3.2-.5.4-4.9-2-10.1-2.4-15-.6-9.8 3.5-15.3 14.5-14.3 26.6-7.7-4.3-15.9-5.6-23.4-2.9-13.4 4.8-20.6 21-19.3 39.8-8-.6-15.2 1.7-20.1 6.9-6.3 6.8-7.4 17.1-3.9 27.6-16.8-8.3-33.8-8-40.7 1.8-4 5.6-3.9 13.3-.7 21.3-9.3-.2-18 7.4-22.7 18.9-4.8-2.8-10-3.7-14.6-1.9-6.1 2.2-9.9 8.4-11 16-7.9-10.4-18.5-15.5-25.9-11.5-4.7 2.5-7.1 8.3-7.1 15.3-3.9-.9-7.9-.4-11.2 1.7-6.1 3.9-8.1 12.2-5.6 20.3-5.9-1.7-11.6-1.3-16.3 1.7-8.4 5.4-10.7 17.5-6.8 30-5.5.9-10 3.5-12.5 7.8-3.2 5.6-2.3 12.8 1.7 19.3-12.7-3-24.1-.1-27.3 7.6-3 7.3 2.4 16.8 12.5 23.6-2.4 4.6-4.6 9-6.4 13.1-12.5 8.8-29.6 23.7-43.2 41.5-.5.6-.9 1.2-1.3 1.8-3.8-2.9-7.8-4.1-11.6-3-8 2.4-11.7 14.5-8.7 27.7-6.2.9-11.2 4-13.4 8.9-.8 1.8-1.1 3.7-1.1 5.6-1.7.6-3.2 1.4-4.6 2.6-8.9 7.3-7.8 23.4 2.3 36.5-.5 1.1-.9 2.2-1.2 3.3-.9.4-1.7.9-2.5 1.6-4.9 4-6 11.3-3.2 18.1-1.3 1.8-2.2 3.9-2.4 6.2-.6 6.5 4.2 12.6 11.4 15.2-4.5 3.2-7.4 7.6-7.8 12.6-.8 8.9 6.5 17.3 17.6 21.5-2.4 4.4-3 9.1-1.3 13.3 2.2 5.4 7.8 8.7 14.7 9.5-9.2 7.4-13.4 17.1-9.7 23.7 3.6 6.3 13.5 7.7 24.1 4 4.1 6.4 12.4 9.7 21.4 8.9-3.6 6.7-4.6 13.7-2.2 20.2 3.5 9.5 13.5 15.2 26 16.2-1.5 1.3-2.5 2.8-3.1 4.6-.9 2.7-.5 5.6.9 8.4-3.8 1.9-6.6 4.9-7.6 8.6-1.1 4 0 8.1 2.6 11.9-2.6 2-4.5 4.5-5.4 7.5-1.7 6.3 1.6 13.2 8.1 18.7-6.7 2.5-11.5 6.9-13.1 12.6-2.1 7.7 2 16.2 10.1 22.9-8.3 1.7-14.6 6.2-16.4 12.7-2.1 7.6 2.6 16.1 11.3 22.2-1.2 1.8-2.3 3.4-3.4 4.9-55.3 32.5 11.3 42.9 11.3 42.9-5 13.4-48.1 17.4-41.5 36.2 5.7 16.3 1.4 37.6 6 49.8 3.4 9 6.1 17.1 8.3 24.4-.1.1-.1.3-.2.4-.6.6-1.1 1.3-1.6 2.1-3.2 5.1-2.8 11.8.5 18.4-11.8-2.5-22.3 0-27 7.5-5.2 8.4-1.7 20.6 7.9 30.9-3.5 1.1-6.4 3.1-8.3 6-3.5 5.6-2.2 13.3 2.5 20.4-.9.8-1.7 1.7-2.3 2.7-1.9 3.1-2.3 6.9-1.3 10.8-1.7.6-3.2 1.4-4.4 2.6-9.9 3.9-20.2 6.4-28.9 7.5-4.2 8-8.9 17.4-13.1 28.3-2.4 1.2-4.3 3-5.7 5.2-2.6 4.2-2.8 9.5-.9 14.9-.3 1-.6 2-.8 3.1-10.9-1.7-20.3 1-24.7 7.9-5.2 8.4-1.7 20.6 7.9 30.9-3.5 1.1-6.4 3.1-8.3 6-3.5 5.6-2.2 13.3 2.5 20.4-.9.8-1.7 1.7-2.3 2.7-1.9 3.1-2.3 6.9-1.3 10.8-2.4.8-4.3 2.2-5.6 4.1-4.7 6.8.2 18.3 10.9 25.6 2.6 1.8 5.4 3.1 8 4.1-5 7.9-6.1 16.8-2 23.6 3.5 5.9 10 9.2 17.7 9.7-7.6 9.9-9.8 21.4-4.7 30 5.7 9.7 18.9 13 33 9.6-.5 4 .1 7.9 2.1 11.2 3.8 6.5 11.7 9.5 20.6 8.9.3 1.3.9 2.5 1.6 3.7 2.1 3.6 5.6 6.1 9.7 7.3-.3 2.7.2 5.3 1.4 7.7 4.5 8.3 17.5 9.9 29.2 3.7 5.9-3.1 10.3-7.7 12.6-12.5 7.4 11 18.9 16.7 28.7 13.1 6.4-2.3 10.9-8.2 12.8-15.7 8.4 9.3 19.2 13.6 28.6 10.2 10.5-3.8 16.3-16.2 15.5-30.6 3.8 1.3 7.8 1.3 11.4 0 7.1-2.5 11.5-9.7 12.6-18.6 1.3-.1 2.6-.4 3.9-.8 3.9-1.4 7-4.4 9-8.2 2.6.8 5.3.8 7.8 0 8.9-2.9 13-15.4 9.1-28-.6-1.8-1.3-3.5-2.1-5.1 1.9-1.7 3.7-3.4 5.4-5.4 16.1-18.6 12.7-39.7 25-42.4 4.7-1 8.4 1.4 12.2 4.9-6.6 7.5-8.5 20.8-3.8 33.9 6.2 17.1 21.2 27.3 33.6 22.9 6.4-2.3 10.9-8.2 12.8-15.7 8.4 9.3 19.2 13.6 28.6 10.2 10.5-3.8 16.3-16.2 15.5-30.6 3.8 1.3 7.8 1.3 11.4 0 7.1-2.5 11.5-9.7 12.6-18.6 1.3-.1 2.6-.4 3.9-.8 3.9-1.4 7-4.4 9-8.2 2.6.8 5.3.8 7.8 0 5.2-1.7 8.8-6.7 10-13.1 20.2 9.2 37 29.8 38.3 51.8.1 2.5 0 5-.4 7.4-11.4-5.5-23-5.1-28.7 1.8-3.8 4.7-4.3 11.3-1.9 18.3-11.4-4-22.1-2.9-27.8 3.9-6.3 7.6-4.3 20.2 3.8 31.7-3.7.6-6.8 2.2-9 4.9-4.2 5.1-4 12.9-.2 20.6-1 .7-1.9 1.4-2.6 2.4-2 2.4-2.9 5.4-2.9 8.7-.4.3-.7.7-1.1 1-5.8-2.4-11.6-2.7-16.7-.3-6.7 3.2-10.7 10.4-11.7 19.4-10.6-10.4-23.1-14.9-33-10.2-10.7 5-15.2 19.3-12.7 35.7l-3 .9c-3.3-.4-6.4 0-9.3 1.4-2 .9-3.7 2.3-5.2 4-2.1 1.3-3.8 3.1-5.5 5.6-3.2 4.8-4.1 9.6-4.1 14.4-.1.1-.3.1-.4.2-4.1 1.9-7 5.6-8.6 10.3-3-.8-5.9-.6-8.6.5-9.4 4-12 19.1-5.8 33.7.8 1.9 1.7 3.6 2.7 5.3-7.1 2.2-15.2 3.7-24 5.2-20.5 3.5-26.7-.1-34.8 2.9-5.4-1-11.4-1.2-17.7-.5-21.8 2.7-38 16.4-36.2 30.5.9 7.4 6.5 13.4 14.7 17.2-13.2 6.8-21.3 17.4-20 28.2 1.5 12.1 14.4 21 31.6 23.4-2.5 3.8-3.8 7.9-3.2 12.2 1 8.1 8.2 14.5 18.3 17.6-.3 1.4-.3 2.9-.1 4.4.6 4.5 3.1 8.4 7.1 11.4-1.6 2.6-2.4 5.4-2.2 8.3.9 10.2 14.4 17.3 30.3 16 6.6-.6 12.6-2.5 17.3-5.4 1.9 2.1 4.2 3.7 6.8 4.7 7 2.6 14.9.5 22-5.1-.1 14.9 5.5 27 15.7 30.8 11.4 4.3 25.3-3 35.4-17.1 2.2 4 5.3 7 9.3 8.5 1.7.6 3.4.9 5.2 1 .9 1.3 1.9 2.6 3.2 3.9 9.5 9.7 16.7 3.7 35 13.8 14 7.7 16.8 15 23.3 22.6-.7 3.1-1 6.5-1 10 0 17.8 9.4 32.2 21 32.2 6 0 11.5-3.9 15.3-10.2 4.2 11.3 11.9 18.9 20.7 18.9 9.9 0 18.3-9.5 22-23.1 2.8 2.4 6 3.8 9.5 3.8 6.6 0 12.5-5.1 16-13 1.1.3 2.3.5 3.5.5 3.5 0 6.7-1.5 9.4-4.1.2-.1.5-.2.7-.3 1.9 1.5 4 2.3 6.2 2.4 7.6.3 14.2-8.3 15.6-19.7 7.1-10.4 8.7-21.5 16.7-29.3 2.6 13.2 10.6 22.8 20.1 22.8 6 0 11.5-3.9 15.3-10.2 4.2 11.3 11.9 18.9 20.7 18.9 9.9 0 18.3-9.5 22-23.1 2.8 2.4 6 3.8 9.5 3.8h1c.5 2.3 1.2 4.7 2.1 7.1 6.3 16.7 20.1 26.9 31 22.8 5.6-2.1 9.4-7.7 10.8-14.9 7.9 9.1 17.8 13.5 26 10.4 9.2-3.5 13.8-15.3 12.5-29.4 3.5 1.3 7 1.5 10.2.3 6.2-2.3 9.9-9.2 10.4-17.8 1.2-.1 2.3-.3 3.5-.7 3.4-1.3 6-4.1 7.6-7.8 2.4.8 4.7.9 7 .2 7.9-2.6 10.9-14.7 6.9-26.9-2.7-8.3-8-14.5-13.6-16.9 3.6-9.7 8.5-20.5 16.6-32.9 6.6 3.4 13.4 3.9 18.6.7 5.1-3.2 7.7-9.4 7.7-16.7 9.5 7.4 20 9.9 27.5 5.2 4.4-2.7 7.1-7.5 8.1-13.3.4.1.9.3 1.4.4 5.9 1.2 12-1.6 17-7 1.9 11.9 7.9 20.9 16.6 22.6 9.7 1.9 19.9-5.7 26.2-18.3 2.3 2.9 5.2 4.9 8.5 5.6 6.5 1.3 13.2-2.6 18.2-9.6 1 .6 2.2 1 3.3 1.2 3.6.7 7.3-.3 10.6-2.5 1.6 1.9 3.5 3.3 5.8 3.8 6.9 1.7 14.5-4.4 18.4-14.1 1.4-.4 2.9-1 4.4-1.6 28.3-12 39-36.5 56.9-40.3 26.8-5.6 37.7-19 56.8-17.9 26.3 1.5 60.6-13.9 73.4-7.6 21.8-3.1 43.6-6.1 65.4-9.2 28.4-36.3 55.5-59.3 75.4-73.9 17.3-12.6 35.1-23.2 58.7-46.6 14.8-14.8 11.4-14.2 31.9-35.2 17.5-18 30.3-28.9 45.2-50 4.2-6 7.4-11.1 9.3-14.3-5.8-1.7-14-4.5-23.3-9.2-13.3-6.7-29-14.6-39.2-31.4-3.4-5.6-9.6-17.7-9.5-36.1-2.1-3.7-5.5-8.8-10.8-13.8-2.9-2.8-19.4-17.9-38.3-16.4-5.6.4-17.8 2.8-36.1 25.7-23.1 28.8-20.3 45.7-35.3 72.9-20.9 38.1-54.9 57.3-73.2 67.6-14.6 8.2-44 22.5-83.4 26.5-18.5 1.9-40.6-1.3-84.6-7.6-18.8-2.7-32-5.3-46.1-14.4-13.3-8.6-21.7-19.4-26.5-26.9-12.2 5-20 3.4-23.9 2-9.4-3.3-15.6-12-24.2-24.2-8.2-11.6-9.2-16.3-14.3-17.4-6.3-1.3-11.7 4.5-20.6 12.6-20.8 19-32.3 29.5-45.4 31.9-14.8 2.7-16.7-7.7-37.6-10.4-21.3-2.8-49.6 4.1-67.4 25.5-15.4 18.6-16.3 40.2-16.1 48.4-2.9-6-15.6-33.2-5.1-64.9 7.9-23.9 28.4-48.6 53.9-53.1 15.7-2.7 20.9 4.5 45.6 2.4 15.3-1.3 25.9-5.2 39.1-9.9 81.2-29.3 86.6-30.8 94.9-31 16.2-.4 39.3 4 67.8 26.8 18.1-8.9 32.5-9.9 42.2-9.3 22.3 1.5 34.2 12.8 49.1 6 3.5-1.6 8.1-6.5 17.1-16.2 12.6-13.5 15.3-19 22-25.9 12.9-13.3 26.4-17.4 35.6-21.6 45.9-20.9 35.7-68.8 87.5-98.6 28.2-16.2 60.4-18.9 65.1-19.2 11.6-.8 21.3-.2 28.3.5 7.7-5.3 15.5-10.7 23.2-16-17.1-13.8-42.6-29.4-71.8-26.3-9.9 1-16.8 3.9-21.5 5.7-22.3 8.8-53.5 17.1-115.7 33.6-55.3 14.6-82.9 22-115.7 17.4-10.8-1.5-36.2-5.2-64-20.2-22-11.9-18.9-16.5-38.6-26.4-37.2-18.9-74-15.7-86.4-14.4-15.1 1.5-27.2 4.8-35.4 7.4-25.3-11.9-41.2-10-51.1-5.7-10.9 4.7-14 12-29.9 26.9 0 0-16 15-38.7 29-31.2 19.3-91.9 36.2-125.9 8.6-13.9-11.2-15-24.9-46.5-57.7-24.2-25.1-36.4-30.5-43.4-32.9-23-7.9-44.4-2.7-55.3.8 8.8-5 23.6-11.7 42.7-13.4 40.6-3.5 70.8 18.9 84.2 28.8 22.6 16.7 36.5 36.6 44.8 51.9 7.1 3.3 25.5 10.7 45.9 4.4 17.9-5.5 28.2-18.8 36.6-29.8 12.5-16.2 11-23 20.6-36.8 17.5-25.3 44.8-34.9 48.9-36.3 29.4-9.9 39.3 4.6 93.6-.6 19.5-1.9 29.4-2.9 40.2-9 24.7-14 20.9-33.5 41.8-44.5 19-10 26.4 3.8 67.5-.3 29.1-2.9 33.8-10.7 60-11.5 21.5-.6 39.2 4 50.4 7.8 19.1 2.3 27.9-2.3 32.4-7.1 7.4-7.8 3.9-16.6 11.5-28.6 6.8-10.7 16.9-15.5 24.8-19.2 19.9-9.3 26.2-2.4 56.3-9 14-3.1 29.4-6.6 44-18.6 8.7-7.2 14.3-14.9 17.6-20.3-3.3-1.3-8.3-2.8-14.5-3.2-11.7-.8-20.4 3-26.5 5.3-6 2.2-25.4 9.5-41.3 8.2-31.5-2.6-49.9-39.2-51.7-42.9-13.6-28-6.5-55-3.3-67.1 4.7-17.7 12.7-30.7 18.4-38.6-10.2-34.1-25.7-47.7-37.9-53.7-19.1-9.4-30.2-.6-66.5-7.8-13.6-2.7-34.5-7.1-56.1-21.2-8.3-5.4-35.8-24-49.8-60.3-12.7-32.8-7.2-61.4-3.8-79.1 6.5-33.8 21.7-58.4 32.3-72.5-3.3 14.1-7 34.2-7.8 58.4-1.4 40.4-2.5 68.6 14.7 93.9 21.3 31.3 58.5 41 82.5 47.2 19.5 5 36.4 6.1 48.1 6.1 14.8-4.3 31.5-8.3 50-11.3 36.3-5.8 46.6-2.5 50.2-1.2 1.9.7 29.3 11 35.5 33.9 2.9 11-1.7 14.6 2.1 24.9 6.1 16.5 24.1 23.9 28.4 25.7 25 10.3 37.8-3.2 60 4.6 9.4 3.3 22.3 11.1 34.2 32 3.3-1.1 8-2.5 13.6-3.7 23.4-5 42.2-2.3 46.1-1.7 25.1 3.9 42.6 15.8 50 21 26.7 18.6 24.2 31.6 48.7 43.3 7.8 3.7 22.7 10.5 41.2 7 15.9-3.1 26.4-12.3 31.1-17-16.3-10.7-54.6-39.2-70.7-90-5.2-16.5-16.1-50.8-.2-82.6 11.6-23.2 31.9-35.2 31.9-35.2 8.5-5 16.5-7.5 22.1-8.8 4.7-7.6 12.5-18.9 24.4-30.3 19.1-18.3 31.7-20.5 42.9-35.6 6.2-8.4 13.1-22.1 13.5-45 14.5 21.1 15.2 37 13.9 46.6-1.8 12.6-10.9 24.9-29.2 49-21.3 28.2-28 31.9-29.7 45-1.9 15 6.2 15.2 6.7 37.5.5 25.8-9.9 44-12.2 47.9-4.5 7.5-9.4 13.1-13 16.7 8.9 7.7 22.9 18.8 41.9 29 26.8 14.5 35.9 12.5 52.7 26.7 7.5 6.4 27.3 23.1 30.1 47.6 1.4 12.2-2.5 16.8.5 28.2 4 15.1 15.8 25.1 25 31.1 2.5-12.9 7.3-22.2 10.7-27.5 16-25.8 42.1-34.2 50.9-36.6 9.9-2.7 18.4-3 23.8-3 13.1-15.5 17.1-29 18.4-38.6 2.8-21.2-6.5-36.2 3.4-53.8 2.9-5.2 3.4-3.3 10.4-13.4 10.3-14.8 17.6-25.3 14.8-35.1-2.4-8.3-9.9-8.3-12.3-17.6-1.4-5.3-.5-11.2 3.6-19.6 24.3-48.9 74.3-66.7 74.3-66.7 16.5-5.9 24.3-5 43.5-14.5 13.3-6.5 23.3-13.7 29.9-18.8-2.7 6.9-7.4 16.9-15.8 27.2-18 22-41.2 30.4-45.4 31.9-19.9 6.9-26 1.8-37 10.7-12.6 10.2-15.6 25.9-16.4 30.3-2.8 14.8 1 26.7 3 31.9 4.4 3.3 10.4 8.6 16.1 16.1 14.1 18.7 16.2 38.4 17.1 48.3 2 21.8-3.1 39.3-7 49.2-3 1.6-7.2 4.4-9.9 9.3-5.7 10.3.9 20 6.3 42.5 6.5 27.1.7 28.1 7.9 47.4 5.8 15.5 5.1 20.5 3.5 29.7-2 11.8-7 18.7-13.9 24-6.8 5.2-13.3 8.4-17.9 10.3 1 3 2.4 7.8 3.7 13.6 4.7 20.7 2 25.9 6.9 31.4 3.6 4.1 9.2 5.6 14.6 6 1.8 15 10.4 26.3 20.6 26.3 6 0 11.5-3.9 15.3-10.2 4.2 11.3 11.9 18.9 20.7 18.9 9.9 0 18.3-9.5 22-23.1 1.8 1.5 3.7 2.7 5.8 3.3 1.1.7 2.3 1.3 3.5 1.9.2 1.1.5 2.2.9 3.3 5.1 17.1 18.3 28.2 29.4 24.9 5.8-1.7 9.9-7 11.7-14.1 7.2 9.6 16.8 14.7 25.3 12.2 9.5-2.8 14.8-14.4 14.5-28.4 3.4 1.5 6.9 1.9 10.2.9 6.3-1.9 10.5-8.5 11.6-17 1.2 0 2.4-.2 3.5-.5 3.5-1.1 6.3-3.7 8.2-7.2 2.3 1 4.7 1.2 6.9.6 8-2.1 11.9-13.9 8.7-26.4-.9-3.6-2.4-6.9-4.1-9.7.2-1.2.3-2.3.3-3.4.4-9.3-3.1-14.2-12.5-27.2 12.2-6.5 19.2-17.2 16.3-26.4-1.8-5.8-7.2-9.8-14.3-11.5 9.5-7.4 14.5-17 11.8-25.4-3-9.4-14.6-14.6-28.7-14 1.5-3.4 1.8-6.9.8-10.2-2-6.3-8.7-10.3-17.2-11.3 0-1.2-.2-2.4-.6-3.5-1.1-3.5-3.8-6.2-7.4-8 .9-2.3 1.2-4.7.5-6.9-2-7.1-11.7-10.9-22.6-9.1.1-.1.1-.3.2-.4 4.6-9.2 13.1-10.3 27.2-13.3.5 2.8 1.3 5.7 2.6 8.5 5.3 11.8 15.7 18.6 23.3 15.2 2.6-1.2 4.5-3.4 5.7-6.2 4 1.5 8 1.6 11.5-.1 3.7-1.8 6.1-5.4 7.2-9.9 3.2.6 6.4.4 9.2-1 5.9-2.9 8.8-10 8.5-18.5 6.3 3.3 12.8 4 18.1 1.3 7.1-3.6 10.7-12.3 10.3-22.8 6.8 5.1 14.4 6.8 20.4 3.8 10.4-5.2 12.3-22.3 4.4-38.2-1.5-3.1-3.3-5.8-5.3-8.3 5.5-7.7 8-13 7.3-13.8-.6-.7-3.8 2.1-8.1 5.7.6-2.3.3-4.9-.8-7.3 3.9-1.8 6.8-4.6 8-8.2 1.3-3.9.4-8.1-2-12 2.7-1.9 4.7-4.3 5.7-7.3 2-6.2-.9-13.3-7.2-19 6.8-2.2 11.8-6.3 13.7-12 2.5-7.6-1.2-16.2-9-23.4 8.4-1.3 14.9-5.5 17-11.9 4.9-11.9-5.9-25.3-22.9-30.9zm-2146.4 140.3l-.3-.3c.7 0 1.5.1 2.2.1-.6.1-1.2.1-1.9.2z"/><g><path class="st4" d="M133.6 776.8c0 .4-.4.6-1 .6-.7 0-1.1-.2-1.1-.6 0-6.5-1.7-11.7-5.2-15.5-3.4-3.8-8-5.7-13.6-5.7H99.6c-4.7 0-8.2.3-10.5 1-2.3.6-3.9 1.8-4.8 3.4-.9 1.7-1.3 4.2-1.3 7.6v42h20.8c6.5 0 11.1-1 13.8-3 2.7-2 4-5.4 4-10.2 0-.3.4-.4 1.1-.4s1.1.1 1.1.4l-.2 15.1c0 3.7.1 6.4.2 8.2l.2 9c0 .3-.4.4-1.1.4-.8 0-1.1-.1-1.1-.4 0-5.7-1.4-9.7-4.1-12-2.7-2.3-7.6-3.4-14.6-3.4H83v41.8c0 4.1.6 7 1.7 8.9 1.1 1.8 3.3 3.2 6.6 3.9 3.2.8 8.4 1.1 15.6 1.1.4 0 .6.4.6 1.1 0 .8-.2 1.1-.6 1.1-5.2 0-9.3-.1-12.2-.2l-16.7-.1-12.6.2c-2.3.1-5.5.2-9.5.2-.3 0-.4-.4-.4-1.1 0-.8.1-1.1.4-1.1 5 0 8.6-.3 11-1 2.4-.6 3.9-1.9 4.8-3.7.8-1.8 1.2-4.7 1.2-8.5v-88.4c0-3.8-.4-6.6-1.2-8.4-.8-1.8-2.4-3-4.8-3.7-2.4-.7-6-1.1-11-1.1-.3 0-.4-.4-.4-1.1 0-.8.1-1.1.4-1.1h75.6c1.1 0 1.7.6 1.7 1.7l.4 23zM211 861c.5 0 .8.3 1 .9.1.6-.1 1-.6 1.2l-19.7 9.4c-.5.3-1 .4-1.5.4-1.4 0-2.7-1.1-3.8-3.3-1.1-2.2-1.8-5.3-2.1-9.1l-10.5 6.5c-3.2 2-6 3.5-8.4 4.4-2.4.9-4.9 1.3-7.4 1.3-4.5 0-8-1.3-10.6-3.8-2.6-2.5-3.9-5.6-3.9-9.2 0-3.6 1.4-6.8 4.2-9.6 2.8-2.9 7.6-5.6 14.5-8.1l22-8.2v-13.4c0-14-4.3-21-13-21-4.3 0-7.7 1.4-10.1 4.1-2.4 2.7-4.1 6-5 9.6-.5 2.3-1.1 4-1.8 5.3-.7 1.2-2.1 1.8-4.3 1.8-1.8 0-3.2-.5-4.2-1.6s-1.5-2.3-1.5-3.7c0-2.8 1.9-5.7 5.6-8.7 3.8-3 8.3-5.5 13.7-7.4 5.3-2 10.1-3 14.3-3 5.1 0 8.9 1.7 11.4 5s3.7 8 3.7 13.9v36.1c0 4.7.5 8.1 1.6 10.1s3 3.1 5.6 3.1c2.4 0 5.9-1 10.5-2.9h.3zm-26.9-3.2V836.4l-20.2 7.6c-3.7 1.5-6.2 3.2-7.6 5-1.4 1.8-2.1 3.9-2.1 6.3 0 3.1 1 5.7 2.9 7.8 1.9 2.2 4.6 3.2 8 3.2 2.8 0 6.1-1.1 9.9-3.2l9.1-5.3zM219.5 870.2c0-.8.1-1.1.4-1.1 3.7 0 6.4-.3 8.1-1 1.7-.6 2.9-1.9 3.5-3.7.6-1.8 1-4.7 1-8.5v-36.1c0-4.7-.5-8.1-1.4-10.1-1-2-2.6-3.1-4.9-3.1-2.4 0-5.5 1-9.2 2.9h-.2c-.5 0-.9-.3-1.1-1-.3-.6-.1-1.1.4-1.3l23.7-11.1.8-.2c.3 0 .5.1.9.4.3.3.5.6.5 1 0 .8-.1 3.3-.2 7.5-.1 4.3-.2 9.2-.2 14.8v36.3c0 3.8.3 6.7.9 8.5.6 1.8 1.7 3.1 3.4 3.7 1.7.6 4.4 1 8.1 1 .4 0 .6.4.6 1.1 0 .8-.2 1.1-.6 1.1-2.9 0-5.2-.1-6.9-.2l-10.1-.2-9.9.2c-1.8.1-4.1.2-7.1.2-.4 0-.5-.4-.5-1.1zm10.2-99.3c-1.3-1.3-2-3.1-2-5.3s.7-4.1 2-5.3c1.3-1.3 3.2-1.9 5.6-1.9 2.3 0 4.1.6 5.3 1.9 1.3 1.3 1.9 3.1 1.9 5.3s-.6 4.1-1.9 5.3c-1.3 1.3-3.1 1.9-5.3 1.9-2.4 0-4.3-.7-5.6-1.9zM317 798.1c2.5 1.5 3.7 3.2 3.7 5.1 0 1.3-.5 2.4-1.4 3.4-1 1-2.3 1.5-4.1 1.5-1.3 0-2.4-.3-3.4-1.1-1-.7-1.7-1.1-1.9-1.2-2.4-1.9-4.8-2.9-7.3-2.9-1.8 0-3.7.8-5.6 2.3-2 1.5-5 4.8-9.1 9.7v40.9c0 3.8.4 6.7 1.3 8.5.9 1.8 2.6 3.1 5.3 3.7 2.6.6 6.8 1 12.5 1 .4 0 .6.4.6 1.1 0 .8-.2 1.1-.6 1.1-4.1 0-7.3-.1-9.7-.2l-13.8-.2-10.1.2c-1.7.1-3.9.2-6.9.2-.4 0-.6-.4-.6-1.1 0-.8.2-1.1.6-1.1 3.7 0 6.4-.3 8-1 1.7-.6 2.8-1.9 3.4-3.7.6-1.8 1-4.7 1-8.5v-38.2c0-4.5-.5-7.6-1.5-9.5-1-1.9-2.8-2.9-5.3-2.9-2 0-5.6 1-10.7 2.9h-.4c-.5 0-.9-.3-1.1-.9-.2-.6 0-1 .5-1.2l21.2-9.9c.3-.1.6-.2 1-.2 1 0 2.2 1.4 3.4 4.3 1.3 2.9 1.9 6.5 1.9 11v1.1c5.2-6.4 9.4-10.7 12.4-13 3.1-2.3 6-3.4 8.8-3.4 2.7 0 5.4.7 7.9 2.2zM409.4 865.3c-9.2-5.5-16.4-13.1-21.4-22.5-5-9.5-7.5-19.8-7.5-31 0-13.1 3.3-24.4 9.9-33.7 6.6-9.4 15.1-16.4 25.5-21.1 10.4-4.7 21-7.1 31.8-7.1 12.1 0 22.7 2.8 31.9 8.5s16.2 13.1 21.1 22.4c4.9 9.3 7.4 19.2 7.4 29.6 0 11.6-3.1 22.2-9.2 31.9s-14.3 17.3-24.5 22.9c-10.3 5.6-21.4 8.4-33.3 8.4-11.9 0-22.5-2.8-31.7-8.3zm62.9-1.8c7.3-4.2 13-10.4 17.2-18.5 4.2-8.1 6.3-17.9 6.3-29.2 0-12-2.3-22.6-7-32-4.7-9.4-11.2-16.6-19.7-21.9-8.5-5.2-18.3-7.8-29.5-7.8-14.8 0-26.3 4.6-34.6 13.8-8.3 9.2-12.4 21.6-12.4 37.4 0 11.8 2.3 22.7 7 32.6 4.6 9.9 11.2 17.7 19.6 23.4 8.4 5.7 18 8.6 28.7 8.6 9-.1 17.2-2.2 24.4-6.4zM590.3 861c.5 0 .8.3 1 .9.1.6-.1 1-.6 1.2l-19.7 9.4c-.5.3-1 .4-1.5.4-1.4 0-2.7-1.1-3.8-3.3-1.1-2.2-1.8-5.3-2.1-9.1l-10.5 6.5c-3.2 2-6 3.5-8.4 4.4-2.4.9-4.9 1.3-7.4 1.3-4.5 0-8-1.3-10.6-3.8-2.6-2.5-3.9-5.6-3.9-9.2 0-3.6 1.4-6.8 4.2-9.6 2.8-2.9 7.6-5.6 14.5-8.1l22-8.2v-13.4c0-14-4.3-21-13-21-4.3 0-7.7 1.4-10.1 4.1-2.4 2.7-4.1 6-5 9.6-.5 2.3-1.1 4-1.8 5.3-.7 1.2-2.1 1.8-4.3 1.8-1.8 0-3.2-.5-4.2-1.6s-1.5-2.3-1.5-3.7c0-2.8 1.9-5.7 5.6-8.7 3.8-3 8.3-5.5 13.7-7.4 5.3-2 10.1-3 14.3-3 5.1 0 8.9 1.7 11.4 5s3.7 8 3.7 13.9v36.1c0 4.7.5 8.1 1.6 10.1s3 3.1 5.6 3.1c2.4 0 5.9-1 10.5-2.9h.3zm-27-3.2V836.4l-20.2 7.6c-3.7 1.5-6.2 3.2-7.6 5-1.4 1.8-2.1 3.9-2.1 6.3 0 3.1 1 5.7 2.9 7.8 1.9 2.2 4.6 3.2 8 3.2 2.8 0 6.1-1.1 9.9-3.2l9.1-5.3zM683.5 870.2c0 .8-.1 1.1-.4 1.1-2.9 0-5.3-.1-7.1-.2l-9.9-.2-13.4.2c-2 .1-4.8.2-8.2.2-.3 0-.4-.4-.4-1.1 0-.8.1-1.1.4-1.1 3.6 0 6.1-.3 7.7-.9 1.6-.6 2.4-1.5 2.4-2.8 0-1.1-.6-2.5-1.7-4.2l-23.9-33-11.1 8.4v19.3c0 3.8.3 6.7 1 8.5.6 1.8 1.8 3.1 3.5 3.7 1.7.6 4.4 1 8.1 1 .3 0 .4.4.4 1.1 0 .8-.1 1.1-.4 1.1-2.9 0-5.3-.1-7.1-.2l-9.9-.2-10.1.2c-1.7.1-3.9.2-6.9.2-.4 0-.6-.4-.6-1.1 0-.8.2-1.1.6-1.1 3.7 0 6.4-.3 8-1 1.7-.6 2.8-1.9 3.4-3.7.6-1.8 1-4.7 1-8.5v-99.1c0-4.7-.4-8.1-1.3-10.1s-2.5-3.1-4.8-3.1c-2.2 0-5.2 1-9.2 2.9h-.4c-.5 0-.9-.3-1.1-1-.2-.6 0-1 .5-1.1l22.9-11.3 1-.2c.3 0 .5.1.9.4.3.3.5.6.5 1v99.9l27.7-21.6c4.3-3.2 6.5-5.9 6.5-8.2 0-2.9-4-4.4-12-4.4-.4 0-.6-.4-.6-1.1s.2-1.1.6-1.1c3.4 0 6 .1 7.8.2l13.6.2 12.6-.2c1.5-.1 3.8-.2 6.7-.2.3 0 .4.4.4 1.1s-.1 1.1-.4 1.1c-9.5 0-20.1 4.4-31.7 13.2l-12.2 9.4 23.9 33.4c6.1 8.8 13.6 13.2 22.3 13.2.3-.2.4.2.4 1zM706.2 820.8c2.9 2.6 7.4 5.4 13.4 8.3 4.3 2.2 7.8 4.1 10.3 5.7 2.5 1.7 4.7 3.8 6.5 6.4 1.8 2.6 2.7 5.8 2.7 9.5 0 6.4-2.4 11.7-7.2 16.1-4.8 4.4-11.3 6.6-19.6 6.6-6.8 0-12.7-2-18-5.9-.8-.5-1.1-1.3-1.1-2.3l-.4-13.8c0-.4.3-.6 1-.7.7-.1 1.1.1 1.2.5 2.4 6.4 5.5 11 9.3 14 3.8 3 8.2 4.5 13.5 4.5 4.3 0 7.6-1 9.9-2.9 2.3-1.9 3.4-4.7 3.4-8.4s-.8-6.8-2.4-9.3c-1.6-2.5-3.6-4.5-5.9-6-2.4-1.5-5.6-3.2-9.6-5.2-4.2-2-7.5-3.8-10-5.4-2.5-1.6-4.6-3.7-6.3-6.4-1.7-2.7-2.6-6-2.6-9.9 0-6.7 2.5-12 7.6-15.7 5.1-3.7 11.1-5.5 18-5.5 4.7 0 9.2 1 13.6 2.9.8.4 1.2.7 1.4 1 .2.3.3.6.3 1.1 0 2.4-.1 4.3-.2 5.7l-.2 7.4c0 .3-.4.4-1.1.4-.8 0-1.1-.1-1.1-.4 0-4.1-2.1-7.5-6.3-10.2-4.2-2.7-8.7-4.1-13.4-4.1-3.4 0-6.1.9-8.1 2.8-2 1.8-3 4.6-3 8.1 0 4.8 1.5 8.5 4.4 11.1z"/></g><g><path class="st4" d="M249.2 895c5.1 1.1 10.4 3.2 16.1 6.1.7.5 1.2.9 1.4 1.2.2.3.3 1.2.5 2.8l2.2 20.6c0 .4-.3.6-1 .6-.7.1-1.1-.1-1.2-.5-2.7-10-7.1-17.5-13.2-22.5-6.2-5-14.2-7.5-24.3-7.5-10.6 0-19.9 2.2-28 6.7-8 4.5-14.2 10.8-18.6 19.1-4.4 8.3-6.6 17.9-6.6 28.9 0 10.3 2.4 19.8 7.3 28.7 4.9 8.9 11.5 15.9 19.7 21.2 8.3 5.2 17.1 7.9 26.5 7.9 20 0 32.8-9.8 38.4-29.5 0-.2.3-.4.9-.4.8 0 1.3.2 1.3.5l-1.4 19.2c-.1 1.4-.3 2.4-.5 2.7-.2.4-.7.8-1.4 1.3-6.3 3.3-12.2 5.5-17.6 6.8-5.5 1.3-12 1.9-19.6 1.9-12.6 0-23.7-2.5-33.6-7.5-9.8-5-17.5-12.1-23.1-21.2-5.6-9.1-8.3-19.6-8.3-31.4 0-11.3 2.8-21.4 8.3-30 5.5-8.7 13.2-15.4 23.1-20.2 9.8-4.8 21-7.1 33.4-7.1 7.7-.1 14.2.5 19.3 1.6zM342.5 998.7c.4 0 .7.2 1 .6.3.4.3.8.1 1.2-8 6.8-16.6 10.1-25.9 10.1-6.9 0-12.7-1.6-17.6-4.9-4.8-3.3-8.5-7.5-11-12.8-2.5-5.2-3.7-11-3.7-17.1 0-7.1 1.7-13.7 5.1-19.6 3.4-6 7.9-10.7 13.7-14.1 5.7-3.4 12-5.2 18.7-5.2 6.8 0 11.9 1.8 15.3 5.5 3.4 3.7 5.2 8.7 5.2 15.1 0 1.7-.2 2.9-.5 3.5-.3.7-.9 1-1.7 1l-45.1.2c-.2 2.9-.4 5.2-.4 7.1 0 10.5 2.5 19 7.4 25.6 4.9 6.6 11.9 9.9 20.8 9.9 3.7 0 6.9-.5 9.6-1.5 2.7-1 5.5-2.6 8.7-4.6h.3zm-38.8-53c-3.6 3.4-5.9 8.2-7.1 14.4l36.4-.7c.1-6.3-1.2-11-4.1-14.1-2.8-3.1-6.7-4.7-11.7-4.7-5.5 0-10 1.7-13.5 5.1zM355.7 1007.3c0-.7.2-1.1.5-1.1 3.5 0 6-.3 7.6-.9 1.6-.6 2.7-1.8 3.3-3.5.6-1.7.9-4.4.9-8.1v-93.9c0-4.5-.4-7.7-1.3-9.6-.8-1.9-2.4-2.9-4.5-2.9-1.9 0-4.8.9-8.7 2.7h-.4c-.5 0-.8-.3-1-.9-.2-.6 0-1 .5-1.1l22.3-10.7c.2-.1.5-.2.9-.2.2 0 .5.1.8.4.3.2.5.5.5.9v115.3c0 3.6.3 6.3.8 8 .5 1.7 1.6 2.9 3.3 3.5 1.6.7 4.2 1 7.7 1 .4 0 .5.4.5 1.1s-.2 1.1-.5 1.1c-2.7 0-4.8-.1-6.5-.2l-9.8-.2-9.8.2c-1.6.1-3.7.2-6.5.2-.4 0-.6-.3-.6-1.1zM401.5 1007.3c0-.7.2-1.1.5-1.1 3.5 0 6-.3 7.6-.9 1.6-.6 2.7-1.8 3.3-3.5.6-1.7.9-4.4.9-8.1v-93.9c0-4.5-.4-7.7-1.3-9.6-.8-1.9-2.4-2.9-4.5-2.9-1.9 0-4.8.9-8.7 2.7h-.3c-.5 0-.8-.3-1-.9-.2-.6 0-1 .5-1.1l22.3-10.7c.2-.1.5-.2.9-.2.2 0 .5.1.8.4.3.2.5.5.5.9v115.3c0 3.6.3 6.3.8 8 .5 1.7 1.6 2.9 3.3 3.5 1.6.7 4.2 1 7.7 1 .4 0 .5.4.5 1.1s-.2 1.1-.5 1.1c-2.7 0-4.8-.1-6.5-.2l-9.8-.2-9.8.2c-1.6.1-3.7.2-6.5.2-.5 0-.7-.3-.7-1.1zM512.6 998.7c.5 0 .8.3.9.8.1.5-.1.9-.5 1.2l-18.6 8.9c-.5.2-1 .4-1.4.4-1.3 0-2.5-1.1-3.6-3.2s-1.8-5-2-8.6l-10 6.2c-3 1.9-5.7 3.3-8 4.2-2.3.8-4.6 1.3-7.1 1.3-4.2 0-7.6-1.2-10-3.6-2.5-2.4-3.7-5.3-3.7-8.7 0-3.4 1.3-6.4 4-9.1 2.7-2.7 7.2-5.3 13.8-7.7l20.8-7.8v-12.7c0-13.3-4.1-19.9-12.3-19.9-4.1 0-7.3 1.3-9.6 3.9-2.3 2.6-3.9 5.6-4.7 9.1-.5 2.2-1.1 3.8-1.7 5-.7 1.1-2 1.7-4.1 1.7-1.7 0-3-.5-4-1.5s-1.4-2.2-1.4-3.5c0-2.7 1.8-5.4 5.3-8.2 3.6-2.8 7.9-5.2 12.9-7.1 5.1-1.9 9.6-2.8 13.6-2.8 4.8 0 8.4 1.6 10.8 4.7 2.4 3.1 3.5 7.5 3.5 13.2v34.2c0 4.5.5 7.7 1.5 9.6 1 1.9 2.8 2.9 5.3 2.9 2.3 0 5.6-.9 10-2.7h.3zm-25.6-3.1v-20.3l-19.2 7.2c-3.5 1.4-5.9 3-7.2 4.7-1.3 1.7-2 3.7-2 6 0 2.9.9 5.4 2.7 7.4 1.8 2.1 4.3 3.1 7.6 3.1 2.7 0 5.8-1 9.4-3.1l8.7-5zM570.2 939c2.4 1.4 3.5 3 3.5 4.8 0 1.2-.5 2.3-1.4 3.3-.9 1-2.2 1.4-3.9 1.4-1.2 0-2.3-.3-3.3-1s-1.6-1.1-1.8-1.2c-2.3-1.8-4.6-2.7-6.9-2.7-1.7 0-3.5.7-5.3 2.2-1.9 1.4-4.7 4.5-8.6 9.2v38.7c0 3.6.4 6.3 1.3 8.1.8 1.8 2.5 2.9 5 3.5 2.5.6 6.4.9 11.9.9.4 0 .5.4.5 1.1s-.2 1.1-.5 1.1c-3.9 0-6.9-.1-9.2-.2l-13-.2-9.6.2c-1.6.1-3.7.2-6.5.2-.4 0-.5-.4-.5-1.1s.2-1.1.5-1.1c3.5 0 6-.3 7.6-.9 1.6-.6 2.7-1.8 3.3-3.5.6-1.7.9-4.4.9-8.1v-36.2c0-4.2-.5-7.2-1.4-9-1-1.8-2.7-2.7-5.1-2.7-1.9 0-5.3.9-10.1 2.7h-.4c-.5 0-.8-.3-1-.8-.2-.5 0-.9.5-1.2l20.1-9.4c.2-.1.5-.2.9-.2 1 0 2 1.4 3.3 4.1 1.2 2.7 1.8 6.2 1.8 10.4v1.1c4.9-6 8.9-10.1 11.8-12.3 2.9-2.2 5.7-3.3 8.3-3.3 2.4 0 4.9.7 7.3 2.1zM597.7 960.6c2.8 2.5 7 5.1 12.7 7.9 4.1 2.1 7.4 3.9 9.8 5.4 2.4 1.6 4.5 3.6 6.2 6.1 1.7 2.5 2.5 5.5 2.5 9 0 6-2.3 11.1-6.8 15.3-4.5 4.2-10.7 6.2-18.6 6.2-6.4 0-12.1-1.9-17-5.6-.7-.5-1.1-1.2-1.1-2.2l-.4-13c0-.4.3-.6 1-.6.7-.1 1.1.1 1.2.5 2.3 6 5.2 10.5 8.8 13.3 3.6 2.8 7.8 4.3 12.8 4.3 4.1 0 7.2-.9 9.4-2.7 2.2-1.8 3.3-4.5 3.3-8s-.8-6.4-2.3-8.8c-1.5-2.4-3.4-4.3-5.6-5.7-2.2-1.4-5.3-3.1-9.1-4.9-4-1.9-7.1-3.6-9.5-5.2-2.4-1.5-4.3-3.5-6-6.1s-2.4-5.7-2.4-9.4c0-6.4 2.4-11.3 7.2-14.8 4.8-3.5 10.5-5.2 17-5.2 4.5 0 8.7.9 12.9 2.7.7.4 1.2.7 1.4.9.2.2.3.6.3 1.1 0 2.3-.1 4.1-.2 5.4l-.2 7.1c0 .2-.4.4-1.1.4-.7 0-1.1-.1-1.1-.4 0-3.9-2-7.1-6-9.7-4-2.6-8.2-3.9-12.7-3.9-3.3 0-5.8.9-7.7 2.6-1.9 1.8-2.8 4.3-2.8 7.7 0 4.3 1.3 7.8 4.1 10.3z"/></g></g><g id="Logo"><path class="st4" d="M606.2 727.9c3.3-1.6 6.6-3.4 9.8-5.3 3.2-1.9 6.2-4 9.2-6.2 3-2.2 5.8-4.5 8.6-7 2.7-2.4 5.3-5.1 7.4-7.9 1.1-1.4 1.9-2.9 2.6-4.6.7-1.5 1.1-3.3 1.6-5.1l1.2-5.4 1.2-5.4 1.1-5.4c.4-1.8.6-3.6 1.1-5.6.3-1 .6-2 1-3 .4-.9.9-1.9 1.3-2.7.8-1.6 1.6-3.3 2.3-4.9.3-.8.6-1.6.9-2.5l.4-1.3c.1-.4.3-.8.4-1.2.2-.8.4-1.7.6-2.5l.1-.6.1-.3v-.1.1-.2l.1-1.4c.4-3.2-.4-6.6-1.4-10-1-3.4-2.4-6.7-3.9-10s-3.3-6.4-5.3-9.4-4.2-6-6.2-9.4c-2-3.3-3.7-6.8-5.1-10.4-2.8-7.2-4.4-14.7-5.2-22.3l4.5.5c-4.3 13.2-9.8 26.1-16.4 38.4-3.3 6.1-6.9 12.1-10.7 17.9-3.8 5.8-7.7 11.5-12 17s-8.9 10.8-13.9 15.7c-5 4.9-10.3 9.5-15.9 13.7l-4.3 3c-1.4 1-2.9 1.9-4.4 2.9-2.9 1.9-5.9 3.7-8.9 5.4-6 3.5-12.4 6.6-19.2 8.7-3.4 1.1-6.9 1.8-10.4 2.3-3.5.5-7.1.7-10.6.5-1.8-.1-3.6-.3-5.4-.6-1.8-.3-3.5-.8-5.2-1.2-1.7-.5-3.3-.9-4.9-1.3-1.6-.3-3.3-.6-5-.8-6.7-.8-13.5-.8-20.3-.3-6.8.6-13.5 1.7-20.1 3.4-1.6.4-3.3.9-4.9 1.4-1.6.5-3.2 1-4.9 1.6-3.2 1.1-6.4 2.4-9.4 3.8-6.1 3-11.9 6.7-17.8 10.2-3 1.8-5.9 3.6-8.9 5.3-3 1.7-6.4 3.1-9.8 3.9-3.4.8-6.9 1.2-10.4 1.3-3.5.1-7-.2-10.4-.7-.2 0-.3-.2-.3-.3 0-.2.2-.3.3-.3 6.8.6 13.8.4 20.3-1.5 3.3-.9 6.3-2.3 9.2-4 2.9-1.8 5.8-3.6 8.7-5.5 5.8-3.7 11.6-7.5 17.8-10.7 3.1-1.6 6.4-2.9 9.6-4.1 1.6-.6 3.3-1.2 4.9-1.7 1.7-.6 3.3-1 5-1.5 6.7-1.8 13.6-3 20.6-3.7 7-.6 14-.7 21 .1 1.8.2 3.5.5 5.2.8 1.7.4 3.5.8 5.1 1.3 1.7.4 3.3.9 4.9 1.1 1.6.3 3.3.4 4.9.5 3.4.1 6.7-.1 10-.6s6.6-1.2 9.8-2.2c6.4-2 12.5-5.1 18.3-8.5 2.9-1.7 5.9-3.6 8.7-5.4 1.4-1 2.9-1.9 4.2-2.8l4.1-3c5.4-4.1 10.5-8.6 15.3-13.5 4.8-4.8 9.2-10 13.4-15.4 4.1-5.4 8-11.1 11.7-16.8 3.8-5.7 7.3-11.6 10.5-17.6 6.4-12 11.8-24.7 16-37.7l3.4-10.6 1.1 11.1c.7 7.2 2.3 14.3 4.9 21 1.3 3.3 2.9 6.6 4.7 9.6 1.8 3 4 6 6.1 9.2 2.1 3.2 4 6.5 5.6 10 1.6 3.4 3.1 7 4.2 10.7.6 1.9 1 3.8 1.4 5.7.2 1 .3 2 .3 3V649l-.1.7-.1 1.4v.5l-.1.4-.1.7c-.2 1-.4 2-.7 2.9-.1.5-.3 1-.4 1.4l-.5 1.3c-.3.9-.7 1.8-1 2.7-.8 1.8-1.6 3.5-2.4 5.2-.9 1.7-1.5 3.1-1.9 4.7-.4 1.6-.7 3.5-1.1 5.3-.4 1.8-.9 3.7-1.4 5.5-1.1 3.6-2.2 7.1-3.4 10.7-.6 1.8-1.2 3.6-2.2 5.4-.9 1.7-2 3.4-3.2 4.9-2.5 3-5.3 5.5-8.2 7.9-2.9 2.3-6 4.5-9.1 6.6-6.3 4.1-12.9 7.6-19.7 10.6-.1.1-.2 0-.3-.1.5.4.6.3.7.2z"/><path class="st5" d="M544 420.9c21.2-13.3 33.3-12.8 40.5-9.7 6.7 2.9 10.9 8.5 22.3 10.8 5.7 1.2 8.5.5 14 3 6.3 2.9 10.1 7.2 11.6 9 5.4 6.8 6.4 13.9 7.3 20.6.4 2.9 1.5 13.5-2.1 29.1-4.2 17.7-8.9 17.3-8.6 27.8.2 6.9 2.5 15.2 5.3 25.5 1 3.8 2.1 7.3 2.1 12.3 0 4.6-.9 6.8-2 13.3-.5 3.2-1.1 7.9-1.4 13.8"/><path class="st4" d="M631 507.5s-.7 1.5-2 4.4c-1.3 2.9-3.3 7.2-5.9 12.5-2.6 5.3-6.1 11.7-10.3 18.8-4.2 7.1-9.2 15-15.1 23.3s-12.7 17-20.5 25.7c-7.8 8.7-16.4 17.5-25.8 26.1-4.7 4.3-9.6 8.5-14.5 12.8-4.9 4.3-9.9 8.6-15.2 12.7-5.3 4.2-10.8 8.1-16.8 11.6-3 1.7-6.1 3.3-9.2 4.7-1.6.7-3.1 1.4-4.8 2-.8.3-1.6.6-2.5.9-.9.3-1.7.5-2.5.8-6.6 2-13.2 3.5-19.8 5-6.6 1.5-13.1 2.9-19.6 4.2-6.5 1.3-12.9 2.7-19.3 4-6.4 1.3-12.7 2.6-18.8 4-6.1 1.4-11.9 3.1-17.3 5.5-2.7 1.2-5.3 2.5-7.8 3.9-1.2.7-2.5 1.5-3.8 2.2-1.2.8-2.4 1.5-3.6 2.3-4.8 3.1-9.3 6.4-13.5 9.8-4.2 3.4-8.1 6.9-12 10.2-3.8 3.3-7.6 6.4-11.1 9.3-3.6 2.9-7 5.7-10.5 8-1.7 1.2-3.6 2.3-5.5 3-.9.3-1.8.6-2.8.9-.9.3-1.8.5-2.7.7-3.6.8-6.9 1.1-9.9 1.2-6 .1-10.6-.8-13.7-1.5-1.6-.3-2.7-.7-3.5-.9l-1.2-.3s.4.1 1.2.2c.8.1 2 .3 3.6.5 3.1.3 7.7.8 13.5.3 2.9-.3 6.1-.8 9.4-1.7.8-.2 1.7-.5 2.5-.8.8-.3 1.7-.6 2.6-1 1.6-.7 3.2-1.7 4.8-2.9 6.4-4.9 13.2-11.2 20.8-17.9 1.9-1.7 3.8-3.4 5.8-5.1 2-1.7 4-3.6 6.1-5.3 4.3-3.5 8.9-6.9 13.7-10.1 1.2-.8 2.5-1.6 3.7-2.4 1.3-.8 2.5-1.5 3.8-2.3 2.7-1.5 5.4-2.9 8.2-4.2 5.7-2.6 11.9-4.4 18.1-5.9 6.2-1.5 12.5-2.7 18.9-4.1 6.4-1.4 12.8-2.7 19.3-4.1 6.5-1.4 13-2.8 19.5-4.3s13.1-3.1 19.3-5c.8-.3 1.6-.5 2.3-.8.7-.3 1.5-.5 2.3-.8 1.5-.6 3-1.3 4.5-2 3-1.4 5.9-2.9 8.7-4.5 5.7-3.3 11-7.1 16.2-11.1 5.2-4.1 10.1-8.3 15-12.6 4.9-4.3 9.8-8.5 14.4-12.7 9.3-8.5 17.8-17.1 25.4-25.7 3.8-4.3 7.5-8.5 10.9-12.7 3.4-4.2 6.5-8.4 9.5-12.4 11.8-16.2 20-30.9 25.4-41.3 2.7-5.2 4.7-9.3 6-12.2 1.3-2.9 2-4.4 2-4.4.5-1 1.7-1.5 2.8-1 1.3.2 1.7 1.5 1.3 2.5z"/><path class="st4" d="M584.8 410.3s.2.4.7 1.1c.5.7 1.2 1.9 2 3.3 1.7 2.9 4.1 7.3 6.6 13.2 2.5 5.8 5.1 13.2 6.8 21.8 1.9 8.7 2.7 18.7 2.3 29.6-.5 10.9-2.3 22.6-5.9 34.5-1.8 5.9-3.9 12-6.5 17.9-2.6 6-5.5 11.9-8.9 17.8-6.7 11.8-14.9 23.2-24.3 33.7-9.5 10.6-20.4 20.2-32.3 28.3-11.8 8.2-24.4 15.4-37.6 20.6-6.6 2.6-13.4 4.7-20.3 6.1l-2.6.5c-.9.2-1.7.3-2.6.4-1.7.2-3.5.4-5.2.7-3.5.2-6.9.4-10.2.5-13.3.3-26.2 1-38.4 2-6.1.5-12 1-17.7 1.7-2.8.3-5.6.8-8.2 1.4-.6.2-1.3.3-1.9.5-.6.2-1.2.4-1.8.7-1.2.5-2.4 1.1-3.6 1.7-4.7 2.3-8.9 5.1-12.8 7.9-3.9 2.8-7.3 5.9-10.3 8.8-1.5 1.6-3 3-4.2 4.5-.7.8-1.3 1.5-1.9 2.2-.6.7-1.2 1.5-1.8 2.2-.6.7-1.2 1.5-1.6 2.1-.5.7-1 1.5-1.5 2.2-1 1.4-1.9 2.8-2.8 4-3.3 5.1-5.8 9.4-7.3 12.4l-2.3 4.6c0 .1-.2.1-.3.1-.1 0-.1-.2-.1-.3 0 0 .2-.4.5-1.2.3-.8.8-2 1.4-3.6 1.3-3.1 3.3-7.6 6.5-13.1.8-1.3 1.7-2.7 2.6-4.2.5-.7.9-1.5 1.4-2.2.5-.8 1.1-1.5 1.6-2.3.6-.8 1.1-1.6 1.7-2.4.6-.8 1.3-1.6 1.9-2.4 1.3-1.6 2.8-3.1 4.2-4.8 6.1-6.3 14-12.7 23.7-17.6 1.2-.6 2.5-1.2 3.8-1.8.6-.3 1.4-.6 2.1-.8l2.1-.6c2.8-.7 5.7-1.2 8.6-1.5 5.8-.7 11.7-1.2 17.8-1.8 12.2-1.1 25.2-1.9 38.6-2.3 3.4 0 6.6-.3 9.9-.5 1.6-.2 3.3-.4 5-.7.8-.1 1.7-.2 2.5-.4l2.5-.5c6.6-1.4 13.2-3.4 19.6-6 12.8-5.2 25.1-12.3 36.7-20.4 11.6-8 22.2-17.4 31.5-27.7 9.2-10.3 17.2-21.5 23.7-33 3.2-5.8 6.1-11.6 8.6-17.4 2.5-5.8 4.6-11.7 6.3-17.5 3.5-11.6 5.3-22.9 5.8-33.4.4-10.5-.4-20.2-2.1-28.4-1.7-8.4-4.1-15.4-6.5-21.1-2.4-5.6-4.7-9.9-6.3-12.7-.8-1.4-1.5-2.5-1.9-3.2-.5-.7-.7-1.1-.7-1.1-.6-1-.3-2.3.7-2.9s2.1-.2 2.7.8z"/><path class="st5" d="M436.6 638.5c4-5.2 10.6-13 19.7-21.3 12-10.9 14.9-10.4 26.8-20.6 13.9-12.1 12.3-15.3 28.7-30.3 13.5-12.4 15.3-10.7 19.9-17.1 9.3-13.1 12.2-34.3 4.3-49.7-13.3-26.1-53.8-28.5-74-26.4-18.6 1.9-21 7.9-64.4 16.9-19 4-27.1 4.6-36.4 1.9-14.5-4.2-18.5-12.7-33.1-17.3-13.3-4.3-26.1-2.4-35.6.2-3.7-1.9-9.1-4-15-2.8-8.8 1.7-11.9 9.3-18.5 15.4-10.9 10-29.3 14.4-42.2 10.6-20.4-6-21-30.8-41.6-35.3-8.5-1.8-16.2.7-21.1 2.8"/><path class="st5" d="M449.3 475.5c3.1-5.4 8.5-12.9 17.6-17.2 15.2-7.2 28.2.6 34.7-7.5 4-4.9 0-9.2 6-23.3 1.3-3.1 2.2-4.5 2.3-7.1.2-7.7-7.3-13.6-10.9-16.4-2.9-2.3-17.2-13.6-33.7-9.9-11 2.4-9.2 9-22.8 14.4-15 5.9-22.3.2-30.5 7.7-5.9 5.4-4.4 10.5-11.2 14.8-5.6 3.5-9.3 2.1-16.9 3.2-12.1 1.7-25.1 9.9-30.3 21.6-.9 2.1-5.7 14.1 1.1 25.5 5.4 9.1 14.7 11.8 16.9 12.4"/><path class="st5" d="M491.5 398.8c5.3 1.7 13 4.3 22.3 7.5 16.9 5.9 19.2 7.2 20.4 7.9 13 7.9 16.9 23.8 19.4 33.7 9.7 39.4-11.9 82.9-17.1 92.9M392 433.2c-3.6-1.1-9-2.4-15.7-2.6-7.4-.2-10.3 1.5-19.6 2.4-22.1 2.2-24-.2-29.6 3.3-7.5 4.8-6.1 10.5-13.9 14.3-4.8 2.3-7.7 1.4-17.7 1.2-16.6-.3-29.8-.6-38.2 6.9-2.2 1.9-5.3 5.5-7.2 12.1-.4 1.4-4.2 12.6-15.7 16.6-7.6 2.7-14.2.7-16.4 0-2.3-3.7-6.1-8.8-11.9-13.9-6.5-5.8-16.6-14.7-30.2-15.1-3.4-.1-11.7.3-21.3 6.7"/><path class="st5" d="M319 446c-.9 2.7-2.5 6.6-5.4 10.7-2.5 3.4-4.8 5.5-7.4 7.8-3 2.7-7.5 6.1-13.4 9.5M633.4 529.1c9.7-9.8 12.7-18.5 13.6-24.7 1.3-9.6-2.3-13.2-.6-25.6 1.5-11.1 4.9-10.9 5.8-20.6.9-9.9-1.8-17.4-5.5-27.6-4.5-12.2-6.8-18.5-13.1-21.4-6.4-2.9-13.2-.8-16.7.5-1.7 1.7-4.1 3.7-7.2 5.6-3.6 2.2-7 3.5-9.6 4.2"/><path class="st5" d="M617.1 409c1.2-1.7 3-4.4 4.8-7.8 3.7-7 2.8-8.3 5.4-12.3 4.9-7.5 12.7-10.1 14.3-10.6 2.2-.7 5.4-1.7 9.4-1.2 8 1.1 14.1 7.6 16.6 14 2.2 5.7.2 7.9 1.6 14.9 1.5 7.8 5.6 13.6 8.6 17.1 3.1 8.7 6 20.7 4.9 33.6-.7 8.5-2.7 11.6-4.6 13.4-3.8 3.6-7.5 2.4-11.8 6.4-3.2 3-4.2 6.5-5.6 11.4-2.9 10.5-.2 14.1-2.4 19.8-1.6 4.1-5.7 9.4-17.6 13.4"/><path class="st5" d="M678.8 422.3c3-1.1 7.4-3.3 9.9-7.7 2.8-5.1 1.4-10.2-.3-19.5-3.8-19.8-1.2-16.9-4.1-27.1-1-2.9-8.3-23.9-15.8-26.8-.7-.3-2.4-.9-4-.3-2.7 1-3.6 4.8-4.3 8.3-1.1 5.1-.2 6.1-1.1 12.4-.9 6.5-2.2 8.7-2.7 9.4-1.8 2.9-4.3 4.5-6 5.5M397.1 432.7c29.3-7 53.4-.7 58.4 11.4 1.3 3.1 2.7 9.8.7 17.1-2.1 8.1-7.2 13.1-9.3 14.9"/><path class="st5" d="M721.1 274.6c-2 3-5.3 7.1-10.4 10.5-6.9 4.7-10 3.4-19.6 7.9-12.2 5.7-18 12.8-19.6 14.8-3 3.9-6.5 8.4-5.8 13.8.4 3.5 2.3 4.8 2.6 8.4.3 4.7-2.4 8.7-4.8 11.4"/><path class="st5" d="M685.5 371.2c1.6-3.5 4.9-12.3 3.4-23.5-1.7-12.3-8.3-20.3-10.9-23.1-1.2-5.1-1.9-11.8 1.7-16.8 3.6-5 9.7-5.7 14.6-7.2 7.8-2.4 17.7-8.7 27.2-25.4M459.2 473.4c10.7 2.1 26.7 6.9 41.3 18.2 10.4 8.1 14 14.7 15.5 18 1 2.1 3.1 7.2 3.8 16.3 1.2 16.1-3.3 30.3-7.6 39.9M571.1 409.1c-5.3-3.1-7.2-6.3-7.8-8.8-.8-3 .1-4.9-1.2-7.8-1.5-3.4-4.8-5.1-6.8-6.1-23.1-11.6-34.7-17.3-50.1-17.5-3.4 0-1 .2-18.9 1.4-20.2 1.4-20.3.9-26.3 1.7-6.3.8-33 4.4-34.5 14.3-.7 4.1 3.1 9 7 11 4.2 2.1 9.2 1.1 10.1.8 3.2-.7 4.1-2 7.2-2.3 2.9-.2 5.4.7 6.9 1.5"/><path class="st5" d="M440.1 398.7c-3.8 1.1-10.6 2.4-17-.6-14.8-6.9-19.4-32.4-9.5-44.4 9-10.9 27.9-8.1 37.1-6.7 15.4 2.3 15.3 7.8 29.7 8.9 15.6 1.2 19.1-4.9 31.8-.9 9.3 2.9 18.1 9.5 19.2 10.4 6.3 4.8 5.9 6.3 10.9 9.1 8.8 5 14.4 3 18.2 7.7 1.6 2 3.1 5.5 2.1 12"/><path class="st5" d="M416.2 349.7c-.7-2.7-2.8-9.5-9.2-15-.9-.8-6.4-5.3-14.4-6.6-3.6-.5-4.6 0-8.8-.3-6.1-.5-10.8-2.2-13.9-3.6 3.7.2 9.4.2 16.1-1.2 5.8-1.2 8.1-2.6 15.1-4.9 10.7-3.5 16-5.3 21.9-5.3 7.5 0 20.7 2.5 24.3 10.7 1.9 4.3-.3 7 2.6 11.8 3.2 5.1 8.6 6.9 9.5 7.2 5.2 1.6 7.9-.4 12.4-.2 4.2.2 10.3 2.4 17.6 12"/><path class="st6" d="M369.1 323.8c-9.2-2.5-14.6-6.8-17.7-10-14.5-15.3-13.9-44.8 2.6-72.9-2 5.4-4.4 13.6-5.1 23.8-.6 9.2-1.5 23.7 5.9 35 13.4 20.4 45.5 17.8 47.2 17.7"/><path class="st7" d="M622.3 400.8c-5.4-10.9-11.9-18.1-16.5-22.6-4.8-4.6-18.9-18.2-27.5-14.3-3 1.4-2.3 3.5-9.8 10-4.3 3.7-7 5.2-10.2 5.3-2.3.1-4.2-.6-5.4-1.1"/><path class="st7" d="M616.8 391.4c-1.4-9.1-4.7-20-13.3-28.2-8.8-8.5-15.3-6.5-27.9-16.4-8.3-6.5-18.9-14.1-20-26.1-1.2-12.5 8.4-22.4 11.5-25.3-5 2.1-13.6 6.8-18.7 16-9.5 17.3.1 37.8 3.8 43.9.2.3.3.5.4.6 4.9 7.8 11.6 12.8 17.2 15.9M566.8 295.4c2.4-2.7 6.2-6.7 11.2-11.2 3.8-3.3 5.2-4.2 6.9-5.9 3.4-3.4 7.2-9.3 8.3-20.2"/><path class="st7" d="M593.6 258.5c5.8 9.3 4.6 15.8 4 18-.9 3.5-2.9 6.3-6.9 11.9-3.8 5.4-4.5 5.1-7.2 9.3-2.6 4-5.3 8.2-6 13.8-.6 5.5 1 7.2 1.2 12.4.2 4.4-.8 10.8-6.4 18.9"/><path class="st5" d="M486.3 483.1c-1.4 0-3.6.3-6.1 1.3-.4.2-2 .8-3.3 1.9-3 2.3-4.7 6.3-4.8 9.3-.2 5.6 5.3 6.3 10.3 15.5 3.2 5.9 4.7 11.8 5.7 16.1 2.2 8.9 1.1 10.6 3.4 15.9 2.8 6.6 7.1 10 8.9 11.4 5 4 10.6 4.8 13.6 5.1M388.4 549.2c5.8-3.3 4.4-7.4 10.5-12.9 5.9-5.4 15.5-8.8 25.2-7.3 10.6 1.6 22.2 11 22.7 21.8.5 10.1-8.8 18.3-16 24.6-3.2 2.8-6.2 4.8-8.1 5.9-2.3 1.4-8.7 5-19.1 7.3-6.1 1.3-23.5 5.1-43.8-2-8.3-2.9-21.8-7.6-22.5-16-.5-6.6 7.1-12.8 11.8-15.4 5.3-3 10.2-3.6 17.6-4.3 13.3-1.4 16.2 1.4 21.7-1.7z"/><path class="st5" d="M474.1 488.1c-6.3-.8-15.7-1-25.6 3.1-10.5 4.3-16.6 11.2-22.1 17.5-6.7 7.6-10.8 15-13.3 20.2M489.5 534.3c-.2-.5-4.5-9.9-13.6-10.9-7.1-.8-12.3 4.2-13.3 5.2-5.3 5.1-4.2 10.1-8.7 19.2-1.8 3.8-4.9 8.9-10.3 14.3M356.6 552c-3.7-3-10.5-7.7-20-8.9-7.7-1-13.7.8-21.9 3.2-13.6 3.9-13.4 6.9-23.7 9.2-13.6 3-16.1-1.7-24.4 2.1-9.1 4.2-16.2 14.7-16.5 26-.3 8.1 3 14.2 4.7 16.9"/><path class="st5" d="M337.4 573.7c-2.4.5-6.2.8-9.7-1.1-6.3-3.4-5.2-10.8-9.4-12.3-5.9-2.1-10.2 11-22.5 13.3-8.9 1.6-11.8-4.3-22.6-2.1-2.7.5-8.8 1.9-13.6 7-7.6 8.3-5.5 20.1-5.2 21.8"/><path class="st5" d="M305.3 549.8c-5.7 4-9.5 7.9-11.9 10.9-1.9 2.4-3.3 4.5-6.3 6.6-3.5 2.4-7.1 3.3-9.7 3.6"/><path class="st8" d="M473.3 499c-2.7-.5-7.2-1-10.7.7-3 1.5-3.5 5.2-4.4 13.5-1.5 13.1-.9 16.2-1.8 21.5-.9 4.8-3 11.7-9.1 19.6"/><path class="st4" d="M632.2 585.8s0 .8.1 2.4c.1 1.5.2 3.8.2 6.7 0 5.8-.3 14-2 23.7-.9 4.9-2 10.1-3.5 15.5-1.4 5.5-3.2 11.1-5.4 16.9-2.2 5.7-4.8 11.6-8 17.2-1.6 2.8-3.3 5.6-5.2 8.3-1.9 2.7-3.8 5.3-6 7.8-4.2 5-9.1 9.5-14.4 13.3-5.3 3.8-11 6.8-16.8 8.9-1.5.5-2.9 1-4.3 1.5-1.5.4-2.9.8-4.4 1.2-2.9.6-5.7 1.2-8.6 1.5-5.6.6-11 .7-15.9.3-4.9-.4-9.4-1.1-13.3-2-3.9-.9-7.3-1.8-10-2.7-2.7-.9-4.8-1.7-6.3-2.2-1.4-.6-2.2-.9-2.2-.9-.1 0-.1-.1-.1-.2s.1-.1.2-.1c0 0 .8.3 2.2.9 1.4.5 3.5 1.3 6.3 2.2 2.7.9 6.1 1.8 10 2.6 3.9.8 8.3 1.5 13.2 1.9 4.9.4 10.2.3 15.7-.4 5.6-.7 11.3-1.9 17-4.2 5.7-2.1 11.3-5.1 16.5-8.9 5.2-3.8 10-8.2 14.1-13.2 2.1-2.5 4-5.1 5.9-7.8 1.8-2.7 3.5-5.4 5-8.2 3.1-5.6 5.7-11.4 7.8-17.1 2.1-5.7 3.9-11.4 5.3-16.8s2.5-10.6 3.3-15.4c1.6-9.6 1.9-17.8 1.9-23.5 0-2.8-.1-5.1-.2-6.6s-.1-2.3-.1-2.3c0-.5.3-.9.8-.9.7-.3 1.2.1 1.2.6z"/><path class="st8" d="M633.9 534.7c-3.3 17.4-11.2 47.1-32.6 77.4-23.8 33.7-51.8 50.6-67.3 59.7-32.5 19.1-63.3 26.8-84.2 30M632.1 589.6c4.3 10.6 8.5 23 12 37.1 4.2 17 6.2 32.5 7.1 45.7M586.1 412.2c7.8 10.2 23.2 33.1 27.3 66.2 5.4 43.4-12.1 76-18.3 86.5M412 640.7c-4.5 1.8-10.9 4.8-17.2 10.3-7.6 6.5-10.8 13-17.1 23.8-4.2 7.3-10.5 17.8-18.8 30.5M561.4 414.1c5.5 13.1 12.4 34.1 13.3 60.6.5 13.6 1.3 55.7-25.3 95.3-37.4 55.8-101.1 64.9-111.6 66.3M635.7 411.2c3.3 6.8 7.9 18.6 8.7 33.9.7 13.6-1.9 24.6-4.2 31.5"/><path class="st8" d="M629.2 387.3c1.1-.7 8.2-5.1 16.6-2.5.9.3 7.1 2.2 10.9 8.3 4.3 6.9 1.8 13.2 1.4 23.8-.5 13.3 3 11.8 5.1 33.5 2.6 26.8-2.4 33.5-4.1 35.5-3.7 4.3-8.4 6.4-11.8 7.4M667.9 340.9c-1.4 4.2-3 10.4-2.1 17.7 1.5 12.4 8.8 17.8 13 28.1 2.9 7.3 4.8 18.6-.5 35.3M675.7 324.3c-.8-.3-4.1-1.7-5.7-5.2-1.6-3.5-1.1-7.7 1.3-11M519.3 522.2c1.5-3.2 5-11.7 2.6-21.8-3-12.5-14-22.4-28.1-25.5M502.9 450.3c3.6 1.5 33.6 14.2 40.8 44.9 3 13 .9 24.1-1 30.7M478.1 394.2c-3.7.2-7.7 1.2-10.7 4.2-5.6 5.5-2.8 13.4-6.6 24.9-2.2 6.7-5.6 11.6-8 14.5M457.5 454.3c1.7-3.7 4.6-8.7 9.5-13 14.4-12.6 33.8-8.9 36.7-8.3M510.8 420.5c5 .6 14.7 2.4 24.2 9.5 15.3 11.2 19 27.6 19.9 31.9M454.2 444.1c-1.4.8-3.5 2.3-5.5 4.5-3.4 3.7-4.6 7.5-5 8.5-3.7 9.7-25.3 16.5-31 18.4-15.5 4.9-35.3 11.3-43.1 2.8-2.8-3-3.7-7.6-9.7-11.6-3.2-2.2-6.4-3.2-8.5-3.6M356.7 448.5c-9.9-5.7-16.6-5.7-21.2-3.9-7 2.7-8.3 9.2-16.2 16.4-6.9 6.3-14.8 9.6-21.7 11.3M369.7 439.8c3.8 2.1 12.6 6.2 24.2 5.5 16.8-1.1 27.3-11.7 29.8-14.3M497.5 370.3c-11.1 2.2-18.6 6.1-18.7 10-.1 4.7 10.3 8.6 15.2 10.4 17.7 6.5 26.2 1.8 38.8 6.9 5.6 2.3 13.2 7 20.4 18M417.5 349.2c9.9 1.7 18.5 3.5 25.5 5.2 15.3 3.6 21.9 6 24.9 12 1 2 1.4 3.9 1.6 5.2M217.9 488.4c2.4 2.1 6.5 5.2 12.2 6.5 12.8 2.8 23.6-5.3 25.6-6.9 11.4-8.9 8.5-18.7 19.4-27.7 6.7-5.5 14.5-7.2 20.1-7.9"/><path class="st8" d="M486.1 520.6c3.2 6.9 9.8 10.9 15.9 10 6.6-.9 10-7.1 10.7-8.3 4.4-8 .8-16.3.3-17.3M429.6 530.7c-3.7 2-8.7 5.3-12.8 10.7-8.9 11.7-4.3 20.6-11.4 28.8-8.5 9.7-25.4 9-35 6.6-15.3-3.9-23.5-15.1-25.6-18.4M442.4 540.7c-1.1 3.9-2.8 9.3-5.5 15.6-1.7 3.8-3.9 8.7-8 14.5-3.5 5.1-7.1 8.9-9.8 11.5M313.1 561.1c.6-1.2 3.2-5.8 8.1-7 6.2-1.6 13.8 2.5 17.2 10.5M564 377.8c1-.9 5.6-4.4 11.4-3.6 5.1.7 8.2 4.3 9.9 6.2 5.6 6.7 3.7 12.4 7.3 20.8 1.7 4.1 5.1 9.6 12.5 15.1M577.5 362.7c-2.4-.4-16.3-2.7-25.5-15.6-9.5-13.4-6.7-27.8-6.2-30.1M580.6 305c-2.8 1.3-10.4 5.2-15.1 14-2.8 5.2-3.5 10-3.6 13M379.1 325.4c11.6-1.1 24.6-2.1 38.8-2.8 7.4-.4 14.4-.6 21.5 3.5 5.5 3.1 8.8 7.6 10.6 10.6M349.3 275c-1.1 4.1-3.2 13.9.5 25.4 4.7 15 15.9 22.6 19.2 24.7"/><path class="st4" d="M632 581.3s.3.8.7 2.3c.5 1.5 1.2 3.7 1.9 6.5.8 2.8 1.6 6.3 2.4 10.3.8 4 1.5 8.6 2 13.6s.7 10.4.7 16.2c-.1 5.8-.6 11.8-1.6 18-.3 1.5-.5 3.1-.8 4.7-.3 1.6-.7 3.1-1 4.7-.7 3.2-1.5 6.3-2.3 9.5-1.7 6.4-3.8 12.8-6.6 18.8-1.4 3.1-3 6-4.7 8.9-1.8 2.8-3.7 5.6-5.9 8.1-.5.6-1.1 1.3-1.6 1.9l-1.7 1.8c-1.1 1.2-2.3 2.3-3.5 3.4l-.9.8c-.3.3-.6.5-1 .8-.6.5-1.2 1-1.9 1.5-1.3 1-2.4 2-3.8 2.8-1.3.9-2.6 1.7-3.9 2.6-1.3.8-2.7 1.5-4 2.2-.7.4-1.3.7-2 1.1-.7.3-1.4.6-2 .9-1.4.6-2.7 1.2-4 1.7-2.7.9-5.4 1.9-8 2.5-2.6.8-5.2 1.2-7.6 1.7-1.2.2-2.5.4-3.6.5-.6.1-1.2.2-1.8.2-.6.1-1.2.1-1.7.2l-3.3.3c-1.1 0-2.1.1-3.1.1-1 .1-2 .1-3 .1h-2.7c-1.8-.1-3.4-.1-4.8-.3-2.9-.2-5.2-.5-6.7-.7-1.5-.2-2.4-.4-2.4-.4l2.4.3c1.5.2 3.8.4 6.7.5 1.5.1 3.1.1 4.8.1h2.7c.9 0 1.9 0 2.9-.1s2.1-.1 3.1-.2l3.3-.3c.6-.1 1.1-.1 1.7-.2.6-.1 1.2-.2 1.7-.3l3.6-.6c4.9-1 10.1-2.3 15.4-4.4 1.3-.5 2.6-1.1 4-1.7.7-.3 1.3-.6 2-.9.6-.4 1.3-.7 2-1.1 1.3-.7 2.7-1.4 4-2.2 1.3-.8 2.5-1.7 3.8-2.5 1.3-.8 2.5-1.9 3.7-2.8.6-.5 1.2-1 1.9-1.5.3-.2.6-.5.9-.7l.9-.8c1.2-1.1 2.4-2.2 3.4-3.4l1.7-1.8c.5-.6 1-1.2 1.6-1.9 2.1-2.5 3.9-5.2 5.7-8 1.7-2.8 3.3-5.7 4.6-8.8 2.8-6 4.8-12.4 6.4-18.7.8-3.2 1.6-6.3 2.3-9.5.3-1.6.7-3.1 1-4.7.3-1.6.5-3.1.7-4.6.9-6.1 1.4-12.1 1.4-17.8 0-5.7-.2-11.1-.7-16-.5-4.9-1.2-9.4-2-13.4s-1.6-7.4-2.4-10.2c-.8-2.8-1.4-5-1.9-6.4-.5-1.5-.7-2.3-.7-2.3-.1-.5.1-.9.6-1.1s.9.3 1 .7z"/><path class="st8" d="M439.3 432.3c-3.5 3.2-8.6 8.3-14.5 14.9-9.1 10.2-8.4 11.2-12.8 14.9-13.6 11.3-30.9 10.2-32.9 10-8.5-.7-15.2-3.6-19.4-5.9M376.1 550.8c-.4 1.5-1.4 6.4 1.4 10.4 4.2 6.1 13.6 4.7 15.9 4.4 10.4-1.5 16.2-10 17.6-12M439.3 498.4c.1 3 .1 10.3-4.3 18-3.7 6.5-8.6 10-11.2 11.7M486.1 518.2c4.5.2 6.8-1.2 8-2.1 5.7-4.5 5.9-16.9-1.4-29.8M490 527.9c.4 2.2 2.1 10.4 9.7 16.6 6.6 5.4 13.7 6.1 16.1 6.2M485.6 371.1c-13.8 4.1-24.2 6.6-31.6 8.1-4.1.8-10.3 2-12.2 6.5-.9 2.1-1.1 5.5.9 8.1 1.7 2.2 4.7 3.2 7.6 2.8M505.7 369.5c4.4 4.8 13.6 13.5 27.9 18.7 11.5 4.2 21.6 4.5 27.7 4.2M578 366.3c4.9 1.8 19.2 7.7 28.6 22.9 5.6 9 7.2 17.7 7.8 22.9M417.1 350.4c-.7 1.7-2.1 6.2-.3 10.9 1.5 4.1 5.2 7.8 9.5 9.2 2.7.8 5 .5 7.8 2.6 1.4 1 2.2 2.1 2.8 2.9M482.1 355.9c8.2 3.1 14.9 4.2 19.6 4.6 3.9.3 8.5.4 12.2 3.7 2.2 1.9 3.3 4.1 3.9 5.8M461.6 343.4c-3.5-.2-8.8-.7-15.2-2.1-14-3-19.8-7.3-31.9-10.6-5.6-1.6-14-3.3-24.7-3.5M555.7 484.8c1.5 6.1 3.3 16 2.1 28.1-.5 4.8-4.4 38.1-33.3 58.2-5.3 3.7-14.7 9.1-28.1 12"/><path id="foliage_1_" class="st4" d="M786.9 290.8c-1-.3-2.1-.6-3.1-.7-.4-2.3-1.3-4.1-2.8-5.1-3.5-2.4-7 1.6-18.9 2.5 1.9-3.3 2.4-6.8.9-9.5-2.2-3.9-7.8-5.1-13.9-3.6.3-1.6.2-3.2-.6-4.6-1.5-2.6-4.7-3.8-8.6-3.4-.1-.5-.3-1-.5-1.5 1.1-.4 2.3-.9 3.4-1.6 7-3.9 10.6-10.8 8-15.3-1.3-2.4-4-3.6-7.3-3.8 3.5-4.1 4.8-8.8 2.9-12.3-.3-.6-.8-1.1-1.2-1.6 2.2-3.2 2.8-6.6 1.3-9.3-1.3-2.4-4-3.6-7.3-3.8 3.5-4.1 4.8-8.8 2.9-12.3-2.2-3.9-7.8-5.1-13.9-3.6.3-1.6.2-3.2-.6-4.6-1.5-2.6-4.7-3.8-8.6-3.4-.1-.5-.3-1-.6-1.5-.6-1.1-1.7-2-2.9-2.5-.8-4-3.2-6.9-6.2-7.1-1.2-.1-2.3.3-3.3.9-.9.2-1.8.4-2.7.8-1.3-3.2-3.5-5.4-6.2-5.6-3.4-.2-6.6 2.8-8.2 7.4-.9-.9-2-1.5-3.2-1.6-2.3-.2-4.4 1.5-5.8 4.1l-1.2-.3c-1.3-.1-2.5.4-3.5 1.3-.6-.6-1.4-1-2.2-1.1-1.3-.1-2.6.5-3.6 1.6-2.8-1.6-5.7-1.9-7.7-.5-1.7 1.2-2.5 3.4-2.3 5.9-3.4-2.4-7.1-3-9.6-1.2-2.8 2-3.3 6.4-1.6 10.9-1.3-.1-2.5.1-3.4.8-1.9 1.3-2.5 3.9-1.9 6.9-.3.1-.5.2-.8.4.7-3.3.2-6.2-1.8-7.9-2.6-2.2-7-1.5-11 1.3-.2-1.3-.8-2.4-1.7-3.1-1.8-1.5-4.5-1.4-7.1-.1-.2-.3-.5-.7-.8-.9-1-.8-2.3-1.1-3.7-1-.2-.8-.5-1.6-1.1-2.1-1.3-1.1-3.3-1.2-5.3-.3-1.2-9.7 1.8-19.4.3-19.7-1.7-.4-6.4 10.6-9.1 10.6h-.1c-.7-.4 5.7-7.8 11.3-18.6 5.8.6 10.8-1.9 11.3-5.7.3-2.1-.8-4.1-2.8-5.7 4.1-.9 7.1-3.2 7.5-6.2.5-3.4-2.4-6.8-6.9-8.7 1-.8 1.6-1.9 1.8-3.1.3-2.3-1.2-4.5-3.7-6.1.2-.4.3-.8.4-1.2.2-1.3-.2-2.5-1.1-3.6.6-.6 1.1-1.3 1.2-2.1.4-2-1.2-4.1-3.7-5.4-.4-2.3-.9-4.8-1.4-7.6-.7-3.9-1.4-7-1.9-9.5 1.7-1.4 3.2-3.5 4.2-6 2.3-5.7 1.1-11.6-2.6-13.1-1.9-.8-4.2-.2-6.2 1.3.1-4.2-1.4-7.6-4.2-8.8-3.1-1.2-7 .6-9.9 4.4-.1 0-.3-.1-.4-.1-.6-1-1.4-1.7-2.3-2.1-1-.4-2.1-.4-3.2-.1-2.4-1-5-2.3-7.7-4 0-.3-.1-.7-.2-1-.7-2-2.7-3.2-5.2-3.7 3.2-2.7 4.7-6.1 3.6-9-1.2-3.2-5.3-4.8-10.2-4.4.5-1.2.5-2.4.1-3.5-.8-2.1-3.2-3.4-6.2-3.6 0-.4-.1-.8-.3-1.2-.4-1.2-1.4-2.1-2.7-2.7.3-.8.3-1.6.1-2.4-.8-2.3-3.8-3.4-7.3-2.9-.6-5.5-3.9-9.6-7.6-9.5-2.1.1-3.9 1.5-5.2 3.7-1.6-3.9-4.4-6.4-7.4-6.3-3.4.1-6.2 3.5-7.3 8.3-1-.8-2.1-1.2-3.3-1.2-2.3.1-4.2 1.9-5.4 4.7-.4-.1-.8-.2-1.2-.1-.4 0-.9.1-1.3.3-2.3-.1-5.8-.3-10.2-.9-.1-1.4-.7-2.6-1.8-3.3-.8-.5-1.8-.7-2.9-.5-.3-1.4-1-2.6-2.2-3.3-1.2-.7-2.7-.7-4.2-.2-.4-1.1-1.1-1.9-2-2.5-2-1.1-4.6-.7-7 1-.2-2.5-1.3-4.5-3.1-5.5-2.4-1.4-5.6-.8-8.6 1.3.2-2.9-.8-5.5-2.8-6.6-.6-.4-1.4-.6-2.1-.7.9-3 .4-5.8-1.5-6.9-.8-.5-1.8-.6-2.9-.4-.4-1.4-1.1-2.6-2.3-3.2-1.3-.7-2.7-.6-4.2-.1-.5-1-1.2-1.9-2.1-2.4-2-1.1-4.6-.5-6.9 1.3-.3-2.4-1.4-4.4-3.3-5.4-2.4-1.3-5.6-.6-8.5 1.6.1-2.9-1-5.4-3-6.5-3.5-1.9-8.8 1-11.7 6.4 0 .1-.1.1-.1.2-2.6-.1-5 1.6-6.7 4.5-1.5-2.5-3.5-4.1-5.9-4.3-3.2-.3-6.3 1.9-8.4 5.6-1.3-3.2-3.5-5.4-6.2-5.6-4.6-.4-9 5-9.6 12.1-.2.2-.4.5-.6.8-1.3-.7-2.7-.8-4-.3-1.3.5-2.3 1.7-2.8 3.2-1.1-.3-2.2-.3-3.2.1-2.1.8-3.4 3.2-3.5 6.1-2.1-1.3-4.3-1.8-6.2-1-2.6 1-4.1 3.9-4.3 7.5-2.2-2-4.7-2.8-6.9-2-2 .8-3.3 2.8-3.7 5.5-3.9-4-9.1-5.3-11.9-2.9-1.6 1.4-2.2 3.6-1.8 6.1-3.6-2.1-7.4-2.3-9.7-.4-2.6 2.2-2.7 6.6-.6 11-1.3 0-2.4.3-3.4 1.1-1.7 1.5-2.1 4.1-1.3 7-.4.2-.7.4-1 .6-1 .8-1.5 2-1.6 3.4-.9 0-1.6.3-2.3.8-2.2 1.7-1.9 5.9.8 9.4-1.9 2-2.7 4.3-2 6.4a5.7 5.7 0 0 0 3 3.3c0 .7.1 1.5.2 2.2-2.2 2.3-3.2 4.9-2.4 7.3 1 3.3 5 5.1 9.9 4.9-.5 1.2-.6 2.4-.3 3.5.7 2.2 3 3.6 6 3.9 0 .4.1.8.2 1.2.4 1.2 1.3 2.2 2.5 2.8-.3.8-.4 1.6-.2 2.4.5 1.9 2.6 3.1 5.2 3.3-1.9 1.5-4.7 3.1-9 4.8-.9-1.3-2.1-2.7-3.3-4.1 2.3-4.9 1.9-9.9-1.2-11.8-1.8-1.1-4.1-.9-6.4.3.8-4.1-.1-7.7-2.7-9.3-2.9-1.8-7.1-.5-10.7 2.9-.4-1.2-1.1-2.2-2.1-2.8-2-1.2-4.6-.7-7.1 1-.3-.3-.6-.6-.9-.8-1.1-.7-2.4-.8-3.8-.4-.3-.8-.8-1.5-1.4-1.9-2.4-1.6-6.3.2-8.8 3.9-.3.4-.5.9-.8 1.3-1.6.5-3.2 1.3-4.6 2.4-.9.7-1.6 1.5-2.2 2.2h-.4c-2.3 0-4.3 1.7-5.5 4.4-1.5-2-3.3-3.2-5.4-3.2-2.8 0-5.2 2.2-6.7 5.5-1.3-2.6-3.4-4.3-5.7-4.3-3.1 0-5.7 2.9-6.8 7.1-2.9.9-5.7 2.4-7.1 4.8-2.5 4.3.7 9.2 3.7 15.4-1.7 1.1-2.8 2.6-2.7 4.2.1 1.4 1 2.7 2.4 3.7-2.9.8-5.1 2.8-5.3 5.2-.1.7 0 1.4.3 2-.5.4-1 .9-1.3 1.4-2.3 3.6.1 9.2 5.3 12.5.2.1.3.2.5.3-.7.4-1.2.9-1.6 1.5-.6.9-.8 1.9-.7 2.9-2.5-3.1-7.5-3.7-12.4-1.7-.5-2.2-1.7-4-3.6-4.9-2-.9-4.2-.7-6.4.4-.4-.2-.9-.3-1.3-.5.4-4.7-1.2-8.6-4.1-9.6-1.4-.5-3-.2-4.5.7-.7-1.6-1.9-2.8-3.5-3.3-2.8-1-6 .5-8 3.4-1-2.3-2.6-4.1-4.7-4.8-3.9-1.3-8.4 1.1-11.4 5.5-1.7-1.5-3.7-2.3-5.7-2-2.6.4-4.7 2.5-5.8 5.5-2.3-4.9-6.2-7.8-9.5-6.8-3.9 1.2-5.6 7.4-3.6 13.9.3.9.6 1.7.9 2.5-.1 0-.1.1-.2.1-1.7-.7-3.5-.8-5.2-.2-3.4 1.2-5.3 5-5 9.2-2.7-1.5-5.5-1.9-8.1-1-4.7 1.7-7.1 7.3-6.7 13.8-2.8-.2-5.3.6-7 2.4-2.2 2.3-2.6 5.9-1.3 9.6-5.8-2.9-11.7-2.8-14.1.6-1.4 1.9-1.4 4.6-.2 7.4-3.2-.1-6.2 2.6-7.9 6.5-1.7-1-3.5-1.3-5.1-.7-2.1.8-3.4 2.9-3.8 5.5-2.7-3.6-6.4-5.4-9-4-1.6.9-2.5 2.9-2.5 5.3-1.4-.3-2.7-.1-3.9.6-2.1 1.4-2.8 4.2-1.9 7-2-.6-4-.4-5.6.6-2.9 1.9-3.7 6-2.4 10.4-1.9.3-3.5 1.2-4.3 2.7-1.1 1.9-.8 4.4.6 6.7-4.4-1-8.4 0-9.5 2.6-1 2.5.8 5.8 4.3 8.2-.8 1.6-1.6 3.1-2.2 4.5-4.3 3-10.2 8.2-15 14.4-.2.2-.3.4-.5.6-1.3-1-2.7-1.4-4-1-2.8.8-4 5-3 9.6-2.1.3-3.9 1.4-4.6 3.1-.3.6-.4 1.3-.4 1.9-.6.2-1.1.5-1.6.9-3.1 2.5-2.7 8.1.8 12.7-.2.4-.3.7-.4 1.1-.3.1-.6.3-.9.5-1.7 1.4-2.1 3.9-1.1 6.3-.5.6-.8 1.4-.8 2.1-.2 2.3 1.5 4.3 3.9 5.3-1.5 1.1-2.5 2.6-2.7 4.3-.3 3.1 2.3 6 6.1 7.4-.8 1.5-1.1 3.1-.5 4.6.8 1.9 2.7 3 5.1 3.3-3.2 2.6-4.7 5.9-3.4 8.2 1.3 2.2 4.7 2.7 8.3 1.4 1.4 2.2 4.3 3.4 7.4 3.1-1.3 2.3-1.6 4.8-.8 7 1.2 3.3 4.7 5.3 9 5.6-.5.4-.9 1-1.1 1.6-.3.9-.2 1.9.3 2.9-1.3.7-2.3 1.7-2.6 3-.4 1.4 0 2.8.9 4.1-.9.7-1.6 1.6-1.9 2.6-.6 2.2.6 4.6 2.8 6.5-2.3.9-4 2.4-4.5 4.4-.7 2.7.7 5.6 3.5 7.9-2.9.6-5.1 2.1-5.7 4.4-.7 2.6.9 5.6 3.9 7.7-.4.6-.8 1.2-1.2 1.7-19.2 11.3 3.9 14.9 3.9 14.9-1.7 4.6-16.6 6-14.4 12.6 2 5.7.5 13 2.1 17.3 1.2 3.1 2.1 5.9 2.9 8.5 0 0 0 .1-.1.1-.2.2-.4.5-.6.7-1.1 1.8-1 4.1.2 6.4-4.1-.9-7.7 0-9.4 2.6-1.8 2.9-.6 7.1 2.7 10.7-1.2.4-2.2 1.1-2.9 2.1-1.2 1.9-.8 4.6.9 7.1-.3.3-.6.6-.8.9-.7 1.1-.8 2.4-.5 3.7-.6.2-1.1.5-1.5.9-3.4 1.3-7 2.2-10 2.6-1.5 2.8-3.1 6-4.5 9.8-.8.4-1.5 1-2 1.8-.9 1.5-1 3.3-.3 5.2-.1.4-.2.7-.3 1.1-3.8-.6-7 .3-8.6 2.8-1.8 2.9-.6 7.1 2.7 10.7-1.2.4-2.2 1.1-2.9 2.1-1.2 1.9-.8 4.6.9 7.1-.3.3-.6.6-.8.9-.7 1.1-.8 2.4-.5 3.7-.8.3-1.5.7-1.9 1.4-1.6 2.4.1 6.3 3.8 8.9.9.6 1.9 1.1 2.8 1.4-1.7 2.8-2.1 5.8-.7 8.2 1.2 2 3.5 3.2 6.1 3.4C10 576 9.2 580 11 583c2 3.3 6.6 4.5 11.4 3.3-.2 1.4 0 2.7.7 3.9 1.3 2.2 4 3.3 7.1 3.1.1.4.3.9.5 1.3.7 1.2 1.9 2.1 3.4 2.5-.1.9.1 1.8.5 2.7 1.6 2.9 6.1 3.4 10.1 1.3 2-1.1 3.6-2.7 4.4-4.3 2.6 3.8 6.5 5.8 9.9 4.5 2.2-.8 3.8-2.8 4.4-5.4 2.9 3.2 6.7 4.7 9.9 3.5 3.6-1.3 5.6-5.6 5.4-10.6 1.3.4 2.7.5 4 0 2.4-.9 4-3.4 4.4-6.5.5 0 .9-.1 1.4-.3 1.4-.5 2.4-1.5 3.1-2.8.9.3 1.8.3 2.7 0 3.1-1 4.5-5.3 3.1-9.7-.2-.6-.4-1.2-.7-1.7.6-.6 1.3-1.2 1.9-1.9 5.6-6.4 4.4-13.8 8.6-14.7 1.6-.4 2.9.5 4.2 1.7-2.3 2.6-2.9 7.2-1.3 11.7 2.1 5.9 7.3 9.5 11.6 7.9 2.2-.8 3.8-2.8 4.4-5.4 2.9 3.2 6.7 4.7 9.9 3.5 3.6-1.3 5.6-5.6 5.4-10.6 1.3.4 2.7.5 4 0 2.4-.9 4-3.4 4.4-6.5.5 0 .9-.1 1.4-.3 1.4-.5 2.4-1.5 3.1-2.8.9.3 1.8.3 2.7 0 1.8-.6 3-2.3 3.5-4.5 7 3.2 12.8 10.3 13.3 17.9 0 .9 0 1.7-.1 2.6-3.9-1.9-8-1.8-10 .6-1.3 1.6-1.5 3.9-.7 6.3-3.9-1.4-7.7-1-9.6 1.4-2.2 2.6-1.5 7 1.3 11-1.3.2-2.4.8-3.1 1.7-1.5 1.8-1.4 4.5-.1 7.1-.3.2-.7.5-.9.8-.7.8-1 1.9-1 3-.1.1-.3.2-.4.3-2-.8-4-.9-5.8-.1-2.3 1.1-3.7 3.6-4.1 6.7-3.7-3.6-8-5.1-11.4-3.5-3.7 1.7-5.3 6.7-4.4 12.4-.4.1-.7.2-1 .3-1.1-.1-2.2 0-3.2.5-.7.3-1.3.8-1.8 1.4-.7.5-1.3 1.1-1.9 1.9-1.1 1.7-1.4 3.3-1.4 5 0 0-.1 0-.1.1-1.4.7-2.4 1.9-3 3.6-1-.3-2-.2-3 .2-3.3 1.4-4.1 6.6-2 11.7.3.6.6 1.3.9 1.8-2.4.8-5.3 1.3-8.3 1.8-7.1 1.2-9.3 0-12 1-1.9-.4-4-.4-6.1-.2-7.5.9-13.2 5.7-12.6 10.6.3 2.6 2.3 4.7 5.1 5.9-4.6 2.4-7.4 6-6.9 9.8.5 4.2 5 7.3 10.9 8.1-.9 1.3-1.3 2.8-1.1 4.2.3 2.8 2.8 5 6.3 6.1-.1.5-.1 1 0 1.5.2 1.6 1.1 2.9 2.5 3.9-.6.9-.8 1.9-.8 2.9.3 3.5 5 6 10.5 5.5 2.3-.2 4.4-.9 6-1.9.7.7 1.5 1.3 2.4 1.6 2.4.9 5.2.2 7.6-1.8 0 5.1 1.9 9.3 5.4 10.7 3.9 1.5 8.8-1 12.3-5.9.8 1.4 1.8 2.4 3.2 2.9.6.2 1.2.3 1.8.3.3.5.7.9 1.1 1.4 3.3 3.4 5.8 1.3 12.1 4.8 4.9 2.7 5.8 5.2 8.1 7.8-.2 1.1-.4 2.2-.4 3.5 0 6.2 3.3 11.2 7.3 11.2 2.1 0 4-1.4 5.3-3.5 1.4 3.9 4.1 6.6 7.2 6.6 3.4 0 6.4-3.3 7.6-8 1 .8 2.1 1.3 3.3 1.3 2.3 0 4.3-1.8 5.5-4.5.4.1.8.2 1.2.2 1.2 0 2.3-.5 3.3-1.4.1 0 .2-.1.2-.1.6.5 1.4.8 2.2.8 2.6.1 4.9-2.9 5.4-6.8 2.5-3.6 3-7.4 5.8-10.2.9 4.6 3.7 7.9 7 7.9 2.1 0 4-1.4 5.3-3.5 1.4 3.9 4.1 6.6 7.2 6.6 3.4 0 6.4-3.3 7.6-8 1 .8 2.1 1.3 3.3 1.3h.3c.2.8.4 1.6.7 2.5 2.2 5.8 7 9.3 10.7 7.9 2-.7 3.2-2.7 3.7-5.2 2.7 3.2 6.2 4.7 9 3.6 3.2-1.2 4.8-5.3 4.3-10.2 1.2.4 2.4.5 3.5.1 2.1-.8 3.4-3.2 3.6-6.2.4 0 .8-.1 1.2-.3 1.2-.4 2.1-1.4 2.6-2.7.8.3 1.6.3 2.4.1 2.7-.9 3.8-5.1 2.4-9.3-.9-2.9-2.8-5-4.7-5.9 1.3-3.3 3-7.1 5.8-11.4 2.3 1.2 4.6 1.4 6.4.3 1.8-1.1 2.7-3.2 2.7-5.8 3.3 2.6 6.9 3.4 9.5 1.8 1.5-.9 2.5-2.6 2.8-4.6.2 0 .3.1.5.1 2 .4 4.2-.5 5.9-2.4.6 4.1 2.7 7.2 5.7 7.8 3.4.7 6.9-2 9.1-6.3.8 1 1.8 1.7 3 1.9 2.2.5 4.6-.9 6.3-3.3.4.2.7.3 1.2.4 1.2.3 2.5-.1 3.7-.9.5.7 1.2 1.1 2 1.3 2.4.6 5-1.5 6.4-4.9.5-.2 1-.3 1.5-.6 9.8-4.2 13.5-12.7 19.7-13.9 9.3-1.9 13.1-6.6 19.7-6.2 9.1.5 21-4.8 25.4-2.6 7.5-1.1 15.1-2.1 22.6-3.2 9.9-12.6 19.2-20.6 26.1-25.6 6-4.4 12.2-8 20.3-16.1 5.1-5.1 4-4.9 11-12.2 6.1-6.2 10.5-10 15.6-17.3 1.5-2.1 2.6-3.8 3.2-4.9-2-.6-4.8-1.6-8.1-3.2-4.6-2.3-10-5.1-13.6-10.9-1.2-1.9-3.3-6.1-3.3-12.5-.7-1.3-1.9-3-3.7-4.8-1-1-6.7-6.2-13.3-5.7-1.9.1-6.1 1-12.5 8.9-8 10-7 15.8-12.2 25.3-7.2 13.2-19 19.8-25.4 23.4-5.1 2.8-15.2 7.8-28.9 9.2-6.4.7-14-.4-29.3-2.6-6.5-.9-11.1-1.8-16-5-4.6-3-7.5-6.7-9.2-9.3-4.2 1.7-6.9 1.2-8.3.7-3.3-1.2-5.4-4.2-8.4-8.4-2.8-4-3.2-5.6-4.9-6-2.2-.5-4 1.6-7.1 4.4-7.2 6.6-11.2 10.2-15.7 11-5.1.9-5.8-2.7-13-3.6-7.4-1-17.2 1.4-23.3 8.8-5.3 6.4-5.6 13.9-5.6 16.8-1-2.1-5.4-11.5-1.8-22.5 2.7-8.3 9.8-16.9 18.7-18.4 5.5-.9 7.2 1.6 15.8.8 5.3-.5 9-1.8 13.5-3.4 28.1-10.1 30-10.7 32.9-10.7 5.6-.1 13.6 1.4 23.5 9.3 6.3-3.1 11.3-3.4 14.6-3.2 7.7.5 11.8 4.5 17 2.1 1.2-.6 2.8-2.2 5.9-5.6 4.4-4.7 5.3-6.6 7.6-9 4.5-4.6 9.2-6 12.3-7.5 15.9-7.2 12.4-23.8 30.3-34.1 9.8-5.6 20.9-6.5 22.6-6.7 4-.3 7.4-.1 9.8.2 2.7-1.8 5.4-3.7 8-5.5-5.9-4.8-14.8-10.2-24.9-9.1-3.4.4-5.8 1.3-7.4 2-7.7 3.1-18.5 5.9-40.1 11.6-19.1 5.1-28.7 7.6-40.1 6-3.8-.5-12.5-1.8-22.2-7-7.6-4.1-6.5-5.7-13.4-9.2-12.9-6.5-25.6-5.4-29.9-5-5.2.5-9.4 1.7-12.2 2.6-8.8-4.1-14.3-3.5-17.7-2-3.8 1.6-4.8 4.2-10.4 9.3 0 0-5.6 5.2-13.4 10-10.8 6.7-31.8 12.5-43.6 3-4.8-3.9-5.2-8.6-16.1-20-8.4-8.7-12.6-10.6-15-11.4-8-2.7-15.4-.9-19.2.3 3.1-1.7 8.2-4.1 14.8-4.6 14.1-1.2 24.5 6.5 29.2 10 7.8 5.8 12.6 12.7 15.5 18 2.5 1.1 8.8 3.7 15.9 1.5 6.2-1.9 9.8-6.5 12.7-10.3 4.3-5.6 3.8-8 7.1-12.8 6.1-8.8 15.5-12.1 16.9-12.6 10.2-3.4 13.6 1.6 32.4-.2 6.7-.6 10.2-1 13.9-3.1 8.5-4.9 7.2-11.6 14.5-15.4 6.6-3.5 9.2 1.3 23.4-.1 10.1-1 11.7-3.7 20.8-4 7.5-.2 13.6 1.4 17.4 2.7 6.6.8 9.7-.8 11.2-2.4 2.5-2.7 1.4-5.7 4-9.9 2.3-3.7 5.8-5.4 8.6-6.7 6.9-3.2 9.1-.8 19.5-3.1 4.9-1.1 10.2-2.3 15.3-6.4 3-2.5 5-5.2 6.1-7-1.2-.4-2.9-1-5-1.1-4.1-.3-7.1 1.1-9.2 1.8-2.1.8-8.8 3.3-14.3 2.8-10.9-.9-17.3-13.6-17.9-14.9-4.7-9.7-2.3-19.1-1.2-23.2 1.6-6.1 4.4-10.7 6.4-13.4-3.5-11.8-8.9-16.5-13.1-18.6-6.6-3.3-10.5-.2-23-2.7-4.7-.9-12-2.5-19.4-7.4-2.9-1.9-12.4-8.3-17.3-20.9-4.4-11.4-2.5-21.3-1.3-27.4 2.3-11.7 7.5-20.2 11.2-25.1-1.1 4.9-2.4 11.8-2.7 20.2-.5 14-.9 23.8 5.1 32.5 7.4 10.9 20.3 14.2 28.6 16.3 6.8 1.7 12.6 2.1 16.7 2.1 5.1-1.5 10.9-2.9 17.3-3.9 12.6-2 16.1-.9 17.4-.4.6.2 10.2 3.8 12.3 11.7 1 3.8-.6 5 .7 8.6 2.1 5.7 8.4 8.3 9.8 8.9 8.6 3.6 13.1-1.1 20.8 1.6 3.3 1.1 7.7 3.8 11.9 11.1 1.2-.4 2.8-.9 4.7-1.3 8.1-1.7 14.6-.8 16-.6 8.7 1.4 14.8 5.5 17.3 7.3 9.2 6.4 8.4 11 16.9 15 2.7 1.3 7.9 3.6 14.3 2.4 5.5-1.1 9.2-4.2 10.8-5.9-5.6-3.7-18.9-13.6-24.5-31.2-1.8-5.7-5.6-17.6-.1-28.6 4-8 11-12.2 11-12.2 2.9-1.7 5.7-2.6 7.6-3 1.6-2.6 4.3-6.5 8.5-10.5 6.6-6.3 11-7.1 14.9-12.3 2.2-2.9 4.6-7.7 4.7-15.6 5 7.3 5.3 12.8 4.8 16.2-.6 4.4-3.8 8.6-10.1 17-7.4 9.8-9.7 11.1-10.3 15.6-.6 5.2 2.2 5.3 2.3 13 .2 8.9-3.4 15.2-4.2 16.6-1.5 2.6-3.2 4.5-4.5 5.8 3.1 2.7 7.9 6.5 14.5 10.1 9.3 5 12.4 4.3 18.3 9.2 2.6 2.2 9.5 8 10.4 16.5.5 4.2-.9 5.8.2 9.8 1.4 5.2 5.5 8.7 8.7 10.8.9-4.5 2.5-7.7 3.7-9.5 5.6-8.9 14.6-11.9 17.6-12.7 3.4-.9 6.4-1.1 8.2-1 4.5-5.4 5.9-10 6.4-13.4 1-7.3-2.3-12.5 1.2-18.6 1-1.8 1.2-1.1 3.6-4.6 3.6-5.1 6.1-8.8 5.1-12.2-.8-2.9-3.4-2.9-4.3-6.1-.5-1.8-.2-3.9 1.2-6.8 8.4-16.9 25.7-23.1 25.7-23.1 5.7-2 8.4-1.7 15.1-5 4.6-2.3 8.1-4.7 10.4-6.5-.9 2.4-2.6 5.9-5.5 9.4-6.2 7.6-14.3 10.5-15.7 11-6.9 2.4-9 .6-12.8 3.7-4.4 3.5-5.4 9-5.7 10.5-1 5.1.3 9.3 1 11 1.5 1.2 3.6 3 5.6 5.6 4.9 6.5 5.6 13.3 5.9 16.7.7 7.5-1.1 13.6-2.4 17.1-1 .5-2.5 1.5-3.4 3.2-2 3.6.3 6.9 2.2 14.7 2.3 9.4.2 9.7 2.7 16.4 2 5.4 1.8 7.1 1.2 10.3-.7 4.1-2.4 6.5-4.8 8.3-2.4 1.8-4.6 2.9-6.2 3.6.3 1.1.8 2.7 1.3 4.7 1.6 7.2.7 9 2.4 10.9 1.3 1.4 3.2 1.9 5.1 2.1.6 5.2 3.6 9.1 7.1 9.1 2.1 0 4-1.4 5.3-3.5 1.4 3.9 4.1 6.6 7.2 6.6 3.4 0 6.4-3.3 7.6-8 .6.5 1.3.9 2 1.1.4.2.8.5 1.2.7.1.4.2.8.3 1.1 1.8 5.9 6.3 9.8 10.2 8.6 2-.6 3.4-2.4 4.1-4.9 2.5 3.3 5.8 5.1 8.7 4.2 3.3-1 5.1-5 5-9.9 1.2.5 2.4.7 3.5.3 2.2-.7 3.6-2.9 4-5.9.4 0 .8-.1 1.2-.2 1.2-.4 2.2-1.3 2.8-2.5.8.3 1.6.4 2.4.2 2.8-.7 4.1-4.8 3-9.1-.3-1.3-.8-2.4-1.4-3.4.1-.4.1-.8.1-1.2.2-3.2-1.1-4.9-4.3-9.4 4.2-2.2 6.7-6 5.7-9.1-.6-2-2.5-3.4-5-4 3.3-2.6 5-5.9 4.1-8.8-1-3.3-5.1-5.1-9.9-4.9.5-1.2.6-2.4.3-3.5-.7-2.2-3-3.6-6-3.9 0-.4-.1-.8-.2-1.2-.4-1.2-1.3-2.2-2.5-2.8.3-.8.4-1.6.2-2.4-.7-2.5-4-3.8-7.8-3.2 0 0 0-.1.1-.1 1.6-3.2 4.6-3.6 9.4-4.6.2 1 .5 2 .9 3 1.8 4.1 5.5 6.4 8.1 5.3.9-.4 1.6-1.2 2-2.2 1.4.5 2.8.6 4 0 1.3-.6 2.1-1.9 2.5-3.4 1.1.2 2.2.1 3.2-.4 2-1 3-3.5 2.9-6.4 2.2 1.1 4.4 1.4 6.3.4 2.5-1.2 3.7-4.3 3.6-7.9 2.4 1.8 5 2.3 7.1 1.3 3.6-1.8 4.3-7.7 1.5-13.2-.5-1.1-1.1-2-1.8-2.9 1.9-2.7 2.8-4.5 2.5-4.8-.2-.2-1.3.7-2.8 2 .2-.8.1-1.7-.3-2.5 1.3-.6 2.3-1.6 2.8-2.9.4-1.3.2-2.8-.7-4.2.9-.6 1.6-1.5 2-2.5.7-2.2-.3-4.6-2.5-6.6 2.3-.8 4.1-2.2 4.7-4.2.9-2.6-.4-5.6-3.1-8.1 2.9-.4 5.2-1.9 5.9-4.1 1.4-3.9-2.3-8.6-8.2-10.5zM43.4 339.4s-.1-.1 0 0c.2-.1.4-.1.7-.1-.2 0-.5 0-.7.1z"/><g class="st9"><path class="st10" d="M73.4 798.5c0 5.4.6 5.4 6.6 5.4h13.6c8.2 0 14.6-.4 17-1.2 2.2-.8 3.8-1.8 5-7l1.8-8c1-1.2 4.4-1.2 5.2 0 0 4.8-.8 12.8-.8 20.2 0 7.2.8 14.8.8 19.4-.8 1.2-3.8 1.2-5.2 0l-2-7.8c-1-3.6-2.6-6.4-6.4-7.6-2.8-.8-7.8-1-15.4-1H80c-6 0-6.6.2-6.6 5.4v27.8c0 21 .4 24 12.2 25l6.8.6c1.2.8.8 4.4-.4 5-11.8-.4-18.6-.6-26.6-.6-8.8 0-15.6.2-25 .6-1.2-.6-1.6-3.8-.4-5l5-.6c11.6-1.4 12-4 12-25v-72c0-21-.4-23.8-12-25.2l-3.2-.4c-1.2-.8-.8-4.4.4-5 8.4.4 15.2.6 23.2.6h36.8c12.8 0 24.4 0 27-.6 0 9.2.2 18.8.6 26.4-.6 1.2-3.4 1.8-4.8.6-1.6-9-4-16.4-14-19-4.4-1.2-11-1.2-19.4-1.2H79.4c-6 0-6 .4-6 8v42.2zM176.8 832.7c3-1 3.4-2.8 3.4-5.8l.2-9.2c.2-7.4-2.2-17.4-14.6-17.4-5.6 0-12.4 2.8-12.8 9-.2 3.2-.4 5.6-2 6.8-3 2.4-8.4 3.8-11.4 3.8-1.8 0-2.8-1-2.8-2.8 0-10.4 22.6-24.6 37.2-24.6 14.4 0 21.4 8.4 20.8 23.4l-1.2 34.8c-.4 9.2 1.4 17.4 9.2 17.4 2 0 3.8-.6 5-1.2 1-.6 2-1.4 2.6-1.4.8 0 1.4 1.2 1.4 2.6 0 1-7 8.8-16.8 8.8-4.8 0-9.6-1.8-13-6.2-.8-1.2-2-2.8-3.2-2.8-1.4 0-3.8 1.8-7.8 4-4.4 2.4-8.8 5-14.4 5-5.8 0-10.6-1.6-14-4.6-3.8-3.4-6.2-8.4-6.2-14 0-7.8 3.8-12.4 16.6-17l23.8-8.6zm-12.4 35.2c4 0 10.2-3 12.2-5 2.4-2.4 2.4-5.2 2.6-9.4l.4-11.8c0-2.2-.8-2.6-2-2.6s-4.6.8-8.2 2c-11.8 4-17.6 7-17.6 14.8 0 3.4 2.4 12 12.6 12zM229.8 816.7c0-7.8 0-8.8-5.4-12.4l-1.8-1.2c-.8-.8-.8-3 .2-3.6 4.6-1.6 16-6.8 20.6-9.8 1 0 1.8.4 2 1.2-.4 7-.8 16.6-.8 24.8v36c0 14.4.4 16.4 7.6 17.4l4.2.6c1.4 1 1 4.4-.4 5-6-.4-11.8-.6-18.8-.6-7.2 0-13.2.2-18.8.6-1.4-.6-1.8-4-.4-5l4.2-.6c7.4-1 7.6-3 7.6-17.4v-35zm16.6-57c0 7.2-5 10.4-10.6 10.4-6.2 0-10.2-4.6-10.2-10 0-6.6 4.8-10.8 10.8-10.8s10 4.8 10 10.4zM281.2 816.7c0-7.8 0-8.8-5.4-12.4l-1.8-1.2c-.8-.8-.8-3 .2-3.6 4.6-1.6 15.2-6.8 20.2-9.8 1 .2 1.6.6 1.6 1.4v11.6c0 1 .2 1.6.6 1.8 7-5.8 14.6-12 22-12 5 0 9 3.2 9 8 0 6.6-5.4 9.2-8.6 9.2-2 0-3-.6-4.4-1.4-3-2-6-3.2-8.8-3.2-3.2 0-5.6 1.8-7.2 4-2 2.8-2.6 8.6-2.6 15.4v27.2c0 14.4.4 16.8 8 17.4l7.2.6c1.4 1 1 4.4-.4 5-9.4-.4-15.2-.6-22.2-.6-7.2 0-13.2.2-18.4.6-1.4-.6-1.8-4-.4-5l3.8-.6c7.4-1.2 7.6-3 7.6-17.4v-35zM387.2 809.5c0-40 30-70.6 71.2-70.6 46.2 0 69.4 33.4 69.4 68.6 0 40.4-30.8 69.8-69.4 69.8-44.4 0-71.2-31.8-71.2-67.8zm120.6 4.2c0-33-14.6-68.6-52.8-68.6-20.8 0-47.8 14.2-47.8 58 0 29.6 14.4 68 53.8 68 24 0 46.8-18 46.8-57.4zM583.2 832.7c3-1 3.4-2.8 3.4-5.8l.2-9.2c.2-7.4-2.2-17.4-14.6-17.4-5.6 0-12.4 2.8-12.8 9-.2 3.2-.4 5.6-2 6.8-3 2.4-8.4 3.8-11.4 3.8-1.8 0-2.8-1-2.8-2.8 0-10.4 22.6-24.6 37.2-24.6 14.4 0 21.4 8.4 20.8 23.4l-1.2 34.8c-.4 9.2 1.4 17.4 9.2 17.4 2 0 3.8-.6 5-1.2 1-.6 2-1.4 2.6-1.4.8 0 1.4 1.2 1.4 2.6 0 1-7 8.8-16.8 8.8-4.8 0-9.6-1.8-13-6.2-.8-1.2-2-2.8-3.2-2.8-1.4 0-3.8 1.8-7.8 4-4.4 2.4-8.8 5-14.4 5-5.8 0-10.6-1.6-14-4.6-3.8-3.4-6.2-8.4-6.2-14 0-7.8 3.8-12.4 16.6-17l23.8-8.6zm-12.4 35.2c4 0 10.2-3 12.2-5 2.4-2.4 2.4-5.2 2.6-9.4l.4-11.8c0-2.2-.8-2.6-2-2.6s-4.6.8-8.2 2c-11.8 4-17.6 7-17.6 14.8 0 3.4 2.4 12 12.6 12zM634.2 761.3c0-11.8-.2-13-6.2-16.6l-2-1.2c-1-.6-1-3.4 0-4 5-1.6 14.4-4.6 21.6-8.4.8 0 1.6.4 2 1.2-.2 6-.6 16-.6 24.8v68.6c0 2.6.2 3 3.6 3 4.4 0 8.2-2.2 13.6-7.8l8.2-8.8c5.6-6 7-8.2 7-9.2s-1-1.6-4.4-2l-4.8-.6c-1.8-.6-1.8-4.4 0-5h4.6c8.8 0 20.6-.4 31.8-1.6 1.4.6 1.6 4 .4 5l-6.4 1.2c-4 .8-7.4 2.8-12.6 7-7.8 6.2-14.6 13.4-18.2 16.8-2.4 2.2-2.6 3.2-1.4 4.8 3.4 4.6 6.6 8.4 13.4 16 7.8 8.8 14.8 16.6 18.8 20.4 2.8 2.6 6.8 3.8 10.4 4.4l2.8.4c1.4 1 1.2 4.4-.4 5-5.8-.4-12.6-.6-19-.6-8 0-15 .2-20.8.6-1.6-.8-1.8-4.2-.4-5l3.6-.6c3-.4 5-.8 5-2s-.8-2.6-3.4-5.6L659 836.7c-1.8-2-4-2.8-6.2-2.8-3.6 0-3.8.6-3.8 6.8v11c0 14.4.4 16.4 7.6 17.4l4.8.6c1.4 1 1 4.4-.4 5-6.6-.4-12.4-.6-19.4-.6-7.2 0-13.2.2-19.2.6-1.4-.6-1.8-4-.2-5l4.4-.6c7.4-1 7.6-3 7.6-17.4v-90.4zM767.8 796.1c1.8 4.4 3.2 10.8 3.2 16.2-.8 1.4-3.8 1.8-4.8.6-3.4-8.8-9.4-14.6-17.6-14.6-7.8 0-12.8 5-12.8 12.2 0 8.2 8.4 12.6 15.4 16.6 10.6 6 20.4 12.8 20.4 27 0 15.2-14 22.8-28.8 22.8-9.4 0-16.4-2-21.4-6-1.6-3.8-2.8-13.6-2.4-20.2 1-1.2 3.6-1.4 4.6-.2 3.4 11 9.8 20.6 21.2 20.6 7.2 0 13.4-4.2 13.4-12.8 0-9.2-8-14.2-15.4-18.4-11.6-6.6-19.8-13.6-19.8-24.6 0-14.6 12-22.8 27.2-22.8 8.4 0 15.8 2 17.6 3.6zM174 920.9c14.6-11.4 33.2-17 54-17 10.8 0 26 2.2 35.4 4.8 2.4.6 3.8 1 5.6.8.2 4.6 1.2 17.2 2.8 29.4-1 1.4-4 1.6-5.4.4-3-13.6-12-29.2-41-29.2-30.6 0-56.6 19.4-56.6 60.8 0 42 26.6 65.2 59.4 65.2 25.8 0 37.2-16.8 41.8-28.6 1.4-1 4.4-.6 5.2.8-1.4 10.4-6.6 23.6-9.6 27.4-2.4.4-4.8 1.2-7 2-4.4 1.6-18.8 4.6-31.6 4.6-18 0-35.2-3.6-49.8-13.4-16-11-28.4-29.2-28.4-55 0-22.2 10-41.2 25.2-53zM305.2 987.9c-5.2 0-5.4.4-5.4 5.4 0 20.2 11.8 37.4 33.2 37.4 6.6 0 12.2-2 18.4-9.8 2-.6 3.4.6 3.6 2.4-6.6 13.6-21 18.6-31.4 18.6-13 0-23.2-5.6-29-13.2-6-7.8-8.4-17.2-8.4-26 0-24.6 16.2-45.2 40.2-45.2 17.2 0 28.4 11.8 28.4 23.8 0 2.8-.4 4.4-.8 5.2-.6 1.2-3.4 1.4-11.8 1.4h-37zm12.4-6c14.8 0 19.2-.8 20.8-2 .6-.4 1.2-1.2 1.2-3.8 0-5.6-3.8-12.6-15.4-12.6-11.8 0-22 10.8-22.2 17.4 0 .4 0 1 1.4 1h14.2zM390.8 1016.7c0 14.4.4 16.4 7.6 17.4l4.8.6c1.4 1 1 4.4-.4 5-6.6-.4-12.4-.6-19.4-.6-7.2 0-13.2.2-19.2.6-1.4-.6-1.8-4-.4-5l4.6-.6c7.4-1 7.6-3 7.6-17.4v-90.4c0-11.8-.2-13-6.2-16.6l-2-1.2c-1-.6-1-3.4 0-4 5-1.6 14.4-4.6 21.6-8.4.8 0 1.6.4 2 1.2-.2 6-.6 16-.6 24.8v94.6zM440.2 1016.7c0 14.4.4 16.4 7.6 17.4l4.8.6c1.4 1 1 4.4-.4 5-6.6-.4-12.4-.6-19.4-.6-7.2 0-13.2.2-19.2.6-1.4-.6-1.8-4-.4-5l4.6-.6c7.4-1 7.6-3 7.6-17.4v-90.4c0-11.8-.2-13-6.2-16.6l-2-1.2c-1-.6-1-3.4 0-4 5-1.6 14.4-4.6 21.6-8.4.8 0 1.6.4 2 1.2-.2 6-.6 16-.6 24.8v94.6zM504.6 997.7c3-1 3.4-2.8 3.4-5.8l.2-9.2c.2-7.4-2.2-17.4-14.6-17.4-5.6 0-12.4 2.8-12.8 9-.2 3.2-.4 5.6-2 6.8-3 2.4-8.4 3.8-11.4 3.8-1.8 0-2.8-1-2.8-2.8 0-10.4 22.6-24.6 37.2-24.6 14.4 0 21.4 8.4 20.8 23.4l-1.2 34.8c-.4 9.2 1.4 17.4 9.2 17.4 2 0 3.8-.6 5-1.2 1-.6 2-1.4 2.6-1.4.8 0 1.4 1.2 1.4 2.6 0 1-7 8.8-16.8 8.8-4.8 0-9.6-1.8-13-6.2-.8-1.2-2-2.8-3.2-2.8-1.4 0-3.8 1.8-7.8 4-4.4 2.4-8.8 5-14.4 5-5.8 0-10.6-1.6-14-4.6-3.8-3.4-6.2-8.4-6.2-14 0-7.8 3.8-12.4 16.6-17l23.8-8.6zm-12.4 35.2c4 0 10.2-3 12.2-5 2.4-2.4 2.4-5.2 2.6-9.4l.4-11.8c0-2.2-.8-2.6-2-2.6s-4.6.8-8.2 2c-11.8 4-17.6 7-17.6 14.8 0 3.4 2.4 12 12.6 12zM557.6 981.7c0-7.8 0-8.8-5.4-12.4l-1.8-1.2c-.8-.8-.8-3 .2-3.6 4.6-1.6 15.2-6.8 20.2-9.8 1 .2 1.6.6 1.6 1.4v11.6c0 1 .2 1.6.6 1.8 7-5.8 14.6-12 22-12 5 0 9 3.2 9 8 0 6.6-5.4 9.2-8.6 9.2-2 0-3-.6-4.4-1.4-3-2-6-3.2-8.8-3.2-3.2 0-5.6 1.8-7.2 4-2 2.8-2.6 8.6-2.6 15.4v27.2c0 14.4.4 16.8 8 17.4l7.2.6c1.4 1 1 4.4-.4 5-9.4-.4-15.2-.6-22.2-.6-7.2 0-13.2.2-18.4.6-1.4-.6-1.8-4-.4-5l3.8-.6c7.4-1.2 7.6-3 7.6-17.4v-35zM659.2 961.1c1.8 4.4 3.2 10.8 3.2 16.2-.8 1.4-3.8 1.8-4.8.6-3.4-8.8-9.4-14.6-17.6-14.6-7.8 0-12.8 5-12.8 12.2 0 8.2 8.4 12.6 15.4 16.6 10.6 6 20.4 12.8 20.4 27 0 15.2-14 22.8-28.8 22.8-9.4 0-16.4-2-21.4-6-1.6-3.8-2.8-13.6-2.4-20.2 1-1.2 3.6-1.4 4.6-.2 3.4 11 9.8 20.6 21.2 20.6 7.2 0 13.4-4.2 13.4-12.8 0-9.2-8-14.2-15.4-18.4-11.6-6.6-19.8-13.6-19.8-24.6 0-14.6 12-22.8 27.2-22.8 8.4 0 15.8 2 17.6 3.6z"/></g></g></svg>